<svg width="154" height="24" viewBox="0 0 154 24" fill="none" xmlns="http://www.w3.org/2000/svg">
<path d="M28.347 9.54222C26.6199 9.54222 25.159 10.8549 23.3095 13.3793C22.4603 14.5622 21.3664 16.2643 20.8842 16.9856C20.6108 17.3534 20.3949 17.2957 20.546 16.899L21.827 13.6101L26.404 0.988121C26.6271 0.468817 24.7991 -0.158676 24.4681 0.468817V0.53373C23.6837 2.20704 22.2228 2.7552 19.6105 2.66144C16.9981 2.56767 11.7447 1.11795 7.77222 1.11795C2.79224 1.11795 0 4.1905 0 7.81121C0 9.84515 1.33135 11.1578 3.12328 11.0929C3.52167 11.1257 3.91821 11.0109 4.23783 10.7703C4.55746 10.5297 4.77797 10.18 4.85764 9.78745C4.89643 9.63566 4.89338 9.47617 4.84882 9.32599C4.80426 9.1758 4.71985 9.04055 4.60461 8.93468C4.48936 8.8288 4.3476 8.75626 4.19445 8.72481C4.0413 8.69335 3.88249 8.70415 3.73498 8.75605C1.97184 9.12389 1.36734 7.90497 1.36734 6.96012C1.36734 4.7098 3.28161 3.03649 7.28286 3.03649C8.31196 3.03649 10.3198 3.28172 12.4428 3.51973C9.74406 11.6699 7.00939 19.2215 6.34012 21.0102C6.27727 21.2507 6.15549 21.4717 5.98583 21.653C5.81617 21.8344 5.60401 21.9705 5.36859 22.0488C4.40426 22.3517 4.09481 22.3806 3.4903 22.5321C2.57635 22.7484 2.72747 23.5057 3.36796 23.4769C4.5194 23.412 6.00908 23.2605 7.18931 23.2605C8.62861 23.2605 11.2265 23.3831 11.6224 23.412C12.342 23.4769 12.4428 22.5898 11.8382 22.5032C11.4137 22.4383 10.7156 22.3229 10.0463 22.2291C9.2547 22.1354 9.01722 21.8036 9.19713 21.1617C9.59294 20.1014 14.2347 6.6572 15.1486 3.85151C16.5879 4.03182 17.8185 4.15444 18.6317 4.21214C20.3085 4.31311 21.9205 4.21214 23.3095 3.19517L19.6393 13.5813L16.4224 22.4744C15.8755 23.9169 17.9337 24.0251 18.3943 23.1451C19.9566 20.0159 21.7942 17.0326 23.8852 14.2304C25.2237 12.283 26.4687 11.1218 27.3467 11.1218C28.016 11.1218 28.4046 11.4896 28.4046 12.3118C28.4046 13.4082 27.8936 15.1103 26.8573 18.0026C25.4972 21.7747 24.9791 22.7773 24.5257 22.8061C24.0723 22.835 23.1871 21.7098 22.705 21.5872C22.4777 21.5185 22.2336 21.533 22.016 21.6282C21.7985 21.7233 21.6218 21.8928 21.5175 22.1065C21.2729 22.5321 21.4312 23.9024 23.4894 23.9962C25.9506 24.1116 28.0448 21.5872 29.4985 17.5482C30.4988 14.8074 30.7435 13.4082 30.7435 12.4056C30.7435 10.4582 29.8367 9.54222 28.347 9.54222ZM70.0148 22.5898C68.4675 22.2291 67.8558 21.6521 67.8558 21.0391L67.9206 19.7624C67.9206 18.8248 68.6402 4.98388 68.7986 2.91388C68.9209 1.39203 67.1865 1.47136 66.4597 2.36572L65.0204 4.21935C63.2501 6.44082 56.1327 15.6585 52.6568 19.9788C51.6801 21.1692 50.3917 22.0634 48.9362 22.5609C48.3605 22.7124 48.4181 23.3254 49.0586 23.3254C49.5695 23.3254 51.088 23.1451 52.2106 23.1451C53.3333 23.1451 55.3987 23.2317 55.9168 23.2605C56.435 23.2894 56.6365 22.7124 55.9168 22.5393C54.4775 22.1137 53.7579 21.818 53.7579 21.443C53.7579 21.0679 54.0889 20.563 54.8805 19.4667C55.485 18.6156 56.9387 16.6971 58.5507 14.5694H65.4882C65.337 17.4905 65.1571 20.563 65.1283 21.1689C65.1317 21.3631 65.0663 21.5522 64.9438 21.7027C64.8213 21.8532 64.6496 21.9554 64.4591 21.9911L62.9118 22.4455C62.4872 22.5681 62.3001 23.3615 62.9694 23.3326C64.4879 23.2389 65.7616 23.1163 66.4309 23.1163C67.4312 23.1163 69.1296 23.3326 69.9212 23.3615C70.7128 23.3903 70.5977 22.7484 70.0148 22.5898ZM65.6969 11.4319C65.6969 11.9801 65.6321 12.5859 65.6033 13.2278H59.6662C62.4297 9.57107 65.3442 5.7412 65.5889 5.37336C65.8336 5.00552 66.0711 5.19305 66.0423 5.46712C65.9487 6.80866 65.7976 9.26815 65.6825 11.4319H65.6969ZM39.6383 9.7586C36.9972 9.63599 34.0538 12.7085 32.6577 17.3318C31.2904 21.8036 32.8089 23.6572 34.4784 23.6572C35.6946 23.6572 37.7241 22.0777 38.8467 20.2529C39.2425 19.611 38.9403 18.9402 38.3358 19.611C37.5729 20.4332 36.5438 21.3131 35.4572 21.104C34.7375 20.9814 34.061 19.7336 35.1261 16.6322C37.6737 16.5096 40.6746 15.0526 41.4375 12.6436C42.0995 10.5664 40.7322 9.78745 39.6383 9.7586ZM39.9118 12.0089C39.2713 13.8914 37.0332 15.471 35.4212 15.8676C36.9684 11.7637 38.4509 10.6674 39.3937 10.6962C39.9118 10.6962 40.1565 11.2877 39.9118 12.0089ZM78.7297 11.2877H81.1909C81.7379 11.2877 82.0113 11.1362 82.1265 10.7395C82.3424 10.2202 82.22 9.97498 81.6731 9.97498H79.2119L80.3993 6.81587C80.5504 6.39033 80.3993 6.17396 80.1546 6.17396H78.8809C78.5498 6.17396 78.4275 6.26772 78.2764 6.69326L77.0026 9.99661H75.0595C74.786 9.99661 74.5702 9.93891 74.3902 10.7611C74.3255 11.1578 74.3902 11.3093 74.786 11.3093H76.5132L73.5698 19.0051C73.1035 20.1073 72.6975 21.2341 72.3536 22.3806C72.1737 23.448 72.8142 23.8736 73.5986 23.7221C75.1459 23.448 77.3624 21.8324 79.3558 19.308C79.9028 18.5868 79.4494 18.1252 78.9025 18.7022C78.0766 19.5231 77.194 20.2848 76.2613 20.9814C75.4697 21.5007 75.0811 21.1328 75.3546 20.3755L78.7297 11.2877ZM106.105 10.5664C106.285 10.1409 105.681 10.0183 104.285 9.75139C103.86 9.65762 103.615 10.112 102.888 11.6339C102.586 11.2671 102.198 10.981 101.758 10.8011C101.319 10.6211 100.842 10.5529 100.37 10.6025C98.1531 10.6602 95.4184 12.6653 93.1731 15.7378C91.3812 18.2045 90.8343 19.9067 91.1725 21.7315C91.2717 22.2463 91.5478 22.71 91.9527 23.0421C92.3576 23.3741 92.8658 23.5535 93.389 23.549C95.0586 23.6067 96.7282 22.0272 98.4266 20.2889L99.4916 19.2215C99.7939 18.9186 100.067 19.0989 99.8802 19.4667C99.3314 20.4231 98.8759 21.4303 98.5201 22.4744C98.3042 23.5418 98.8799 23.8159 99.7003 23.6933C101.276 23.4841 103.738 22.02 105.623 19.409C106.163 18.6445 105.623 18.2189 105.134 18.7959C104.31 19.6698 103.407 20.4643 102.435 21.1689C101.615 21.717 101.248 21.5656 101.492 20.9237C101.615 20.527 102.068 19.4306 106.105 10.5664ZM99.0958 18.5002C97.1816 20.2673 95.6343 21.5439 94.5692 21.5439C93.8496 21.5439 93.5114 21.2338 93.4466 20.7217C93.2667 19.3802 94.4829 17.3462 95.4832 15.9758C97.2103 13.6967 99.3405 11.807 100.701 11.807C101.643 11.807 102.14 12.2037 102.219 12.7807C102.399 13.8337 100.643 17.0577 99.0958 18.457V18.5002ZM141.253 9.33306C139.763 9.33306 137.763 10.3933 135.877 12.4922C135.273 13.2134 135.726 13.6822 136.302 13.1629C136.942 12.5759 137.633 12.0473 138.367 11.5834C139.008 11.1867 139.432 11.4896 139.245 12.0666C139.094 12.5282 138.641 13.6534 138.31 14.4107L136.244 19.1566C135.668 20.4981 135.122 21.8324 134.999 22.2003C134.726 23.1451 135.208 23.6428 135.971 23.6428C137.41 23.6428 139.403 22.4527 141.311 20.325C141.915 19.6038 141.462 19.1421 140.886 19.6542C140.179 20.2833 139.429 20.8618 138.641 21.3853C138.007 21.7747 137.547 21.4718 137.763 20.8948C137.914 20.4693 138.367 19.4956 138.669 18.7959L140.764 14.0501C141.375 12.6508 142.073 11.1651 142.203 10.7684C142.433 9.84515 141.98 9.33306 141.253 9.33306ZM143.074 1.96903C142.629 1.9407 142.19 2.08653 141.851 2.3758C141.511 2.66507 141.297 3.07519 141.253 3.51973C141.216 3.72442 141.222 3.93451 141.27 4.1368C141.318 4.33909 141.408 4.5292 141.533 4.69517C141.658 4.86114 141.816 4.99939 141.997 5.1012C142.178 5.20302 142.378 5.26622 142.584 5.28681C143.018 5.30131 143.442 5.15355 143.773 4.87227C144.104 4.59098 144.319 4.19629 144.376 3.76496C144.419 3.56027 144.418 3.34896 144.374 3.14459C144.33 2.94023 144.244 2.74731 144.121 2.57822C143.999 2.40912 143.842 2.26758 143.662 2.16268C143.481 2.05777 143.281 1.99181 143.074 1.96903ZM151.479 9.78745C148.809 9.66484 145.952 12.7662 144.556 17.3318C143.16 21.8973 144.678 23.6572 146.442 23.6572C147.658 23.6572 149.687 22.2147 150.903 20.2529C151.299 19.611 150.997 18.9402 150.385 19.611C149.63 20.4332 148.658 21.1905 147.658 21.1328C146.658 21.0751 145.952 19.6903 147.111 16.3581C148.809 11.5545 149.99 11.0064 150.508 10.9703C151.026 10.9342 152.084 12.3118 152.724 12.4633C152.949 12.5352 153.193 12.523 153.41 12.4288C153.627 12.3347 153.803 12.165 153.904 11.9512C154.178 11.4319 154.005 9.91006 151.479 9.78745ZM134.244 9.99661H131.782L132.963 6.83751C133.121 6.41197 132.963 6.19559 132.725 6.19559H131.444C131.113 6.19559 130.991 6.28936 130.84 6.7149L129.595 9.99661H127.623C127.349 9.99661 127.141 9.93891 126.953 10.7611C126.896 11.1578 126.989 11.3093 127.349 11.3093H129.084L126.14 19.0051C125.671 20.106 125.265 21.233 124.924 22.3806C124.737 23.448 125.377 23.8736 126.169 23.7221C127.716 23.448 129.933 21.8324 131.926 19.308C132.473 18.5868 132.02 18.1252 131.466 18.7022C130.638 19.5235 129.753 20.2852 128.817 20.9814C128.026 21.5007 127.63 21.1328 127.903 20.3755L131.293 11.2877H133.754C134.301 11.2877 134.575 11.1362 134.697 10.7395C134.906 10.2418 134.783 9.99661 134.244 9.99661ZM88.4738 18.5796C87.6133 19.4368 86.7 20.239 85.7391 20.9814C84.9475 21.5007 84.5589 21.1328 84.8324 20.3755L92.2376 0.721256C92.3599 0.418329 92.2951 0 91.8706 0C90.4238 0.0890052 88.9826 0.252707 87.5527 0.490454C87.308 0.548155 87.1856 0.915996 87.4591 1.00255L89.0999 1.61561C89.4309 1.73823 89.4669 1.88969 89.251 2.43785L82.8893 19.0051C82.4197 20.106 82.0137 21.233 81.6731 22.3806C81.4932 23.448 82.1265 23.8736 82.9181 23.7221C84.5589 23.448 86.8906 21.8324 88.9272 19.1854C89.4741 18.457 89.0207 18.0026 88.4738 18.5796ZM119.699 18.6373L121.491 15.031C122.463 13.0547 122.65 12.146 122.65 11.4752C122.65 10.1697 121.981 9.49895 120.613 9.49895C118.699 9.49895 117.181 11.0208 114.856 14.3025C114.216 15.1824 113.791 15.8532 112.942 16.9495C112.668 17.2885 112.46 17.2525 112.611 16.8558L113.791 13.9058C114.261 12.8811 114.588 11.7962 114.763 10.6818C114.763 9.89564 114.432 9.5278 113.582 9.5278C112.546 9.5278 111.244 10.076 108.969 12.9682C108.149 14.0284 108.969 14.1511 109.243 13.8193C109.696 13.3577 110.682 12.3263 111.337 11.7493C111.992 11.1723 112.575 11.3526 112.337 12.0522C112.181 12.6026 111.988 13.1423 111.762 13.6678L108.163 22.5176C107.674 23.7366 109.984 24.0106 110.38 23.0946C111.625 20.2096 114.352 16.6033 115.475 15.0021C117.116 12.6581 118.541 11.0496 119.57 11.0496C120.117 11.0496 120.361 11.3526 120.361 11.9296C120.308 12.4321 120.164 12.9207 119.937 13.3721L117.389 18.8176C116.67 20.2601 115.993 21.7964 115.871 22.1931C115.569 23.1379 116.087 23.6356 116.9 23.6356C118.339 23.6356 120.333 22.4455 122.247 20.3178C122.851 19.5965 122.398 19.1349 121.822 19.647C121.114 20.2768 120.364 20.8576 119.577 21.3853C118.915 21.8108 118.454 21.4718 118.67 20.866C118.821 20.4332 119.368 19.308 119.699 18.6373Z" fill="#8F94A2"/>
</svg>
