<svg width="69" height="41" viewBox="0 0 69 41" fill="none" xmlns="http://www.w3.org/2000/svg">
<g clip-path="url(#clip0_420_29831)">
<path d="M19.6105 14.9582C19.6105 15.7918 19.7013 16.4676 19.8602 16.9632C20.0418 17.4588 20.2688 17.9995 20.5865 18.5852C20.7 18.7654 20.7454 18.9456 20.7454 19.1033C20.7454 19.3286 20.6092 19.5538 20.3141 19.7791L18.8842 20.7253C18.6799 20.8604 18.4757 20.928 18.2941 20.928C18.0671 20.928 17.8401 20.8154 17.6132 20.6126C17.2954 20.2747 17.023 19.9143 16.7961 19.5538C16.5691 19.1709 16.3421 18.7429 16.0924 18.2247C14.322 20.2973 12.0977 21.3335 9.41941 21.3335C7.51283 21.3335 5.99211 20.7929 4.87994 19.7115C3.76777 18.6302 3.20033 17.1885 3.20033 15.3863C3.20033 13.4714 3.88125 11.917 5.26579 10.7456C6.65033 9.57418 8.48882 8.98846 10.8266 8.98846C11.5984 8.98846 12.3928 9.05605 13.2326 9.16868C14.0724 9.28132 14.9349 9.46154 15.8428 9.66429V8.01978C15.8428 6.30769 15.4796 5.11374 14.776 4.41539C14.0497 3.71703 12.824 3.37912 11.0763 3.37912C10.2819 3.37912 9.46481 3.46923 8.625 3.67198C7.7852 3.87473 6.9681 4.12253 6.17369 4.43791C5.81053 4.59561 5.53816 4.68572 5.37928 4.73077C5.2204 4.77583 5.10691 4.79835 5.01612 4.79835C4.69836 4.79835 4.53948 4.57308 4.53948 4.1V2.99615C4.53948 2.63572 4.58487 2.36539 4.69836 2.20769C4.81185 2.05 5.01612 1.89231 5.33389 1.73462C6.12829 1.32912 7.08158 0.991209 8.19375 0.72088C9.30592 0.428023 10.4862 0.292858 11.7345 0.292858C14.4355 0.292858 16.4102 0.901099 17.6813 2.11758C18.9296 3.33407 19.5651 5.18132 19.5651 7.65934V14.9582H19.6105ZM10.3954 18.3824C11.1444 18.3824 11.9161 18.2473 12.7332 17.9769C13.5503 17.7066 14.2766 17.211 14.8895 16.5352C15.2526 16.1071 15.525 15.6341 15.6612 15.0934C15.7974 14.5527 15.8882 13.8995 15.8882 13.1335V12.1874C15.2299 12.0297 14.5263 11.8945 13.8 11.8044C13.0737 11.7143 12.3701 11.6692 11.6665 11.6692C10.1457 11.6692 9.03356 11.9621 8.28454 12.5703C7.53553 13.1786 7.17237 14.0346 7.17237 15.161C7.17237 16.2198 7.44474 17.0082 8.01217 17.5489C8.55691 18.1121 9.35132 18.3824 10.3954 18.3824ZM28.6214 20.8154C28.2128 20.8154 27.9405 20.7478 27.7589 20.5901C27.5773 20.4549 27.4184 20.1396 27.2822 19.7115L21.9484 2.2978C21.8122 1.84725 21.7441 1.5544 21.7441 1.3967C21.7441 1.03626 21.9257 0.833517 22.2888 0.833517H24.5132C24.9444 0.833517 25.2395 0.901099 25.3984 1.05879C25.5799 1.19396 25.7161 1.50934 25.8523 1.93736L29.6655 16.8506L33.2063 1.93736C33.3197 1.48681 33.4559 1.19396 33.6375 1.05879C33.8191 0.923627 34.1368 0.833517 34.5454 0.833517H36.3612C36.7924 0.833517 37.0875 0.901099 37.2691 1.05879C37.4507 1.19396 37.6095 1.50934 37.7003 1.93736L41.2865 17.0308L45.2132 1.93736C45.3493 1.48681 45.5082 1.19396 45.6671 1.05879C45.8487 0.923627 46.1438 0.833517 46.5523 0.833517H48.6632C49.0263 0.833517 49.2306 1.01374 49.2306 1.3967C49.2306 1.50934 49.2079 1.62198 49.1852 1.75714C49.1625 1.89231 49.1171 2.07253 49.0263 2.32033L43.5563 19.7341C43.4201 20.1846 43.2612 20.4775 43.0796 20.6126C42.898 20.7478 42.603 20.8379 42.2171 20.8379H40.2651C39.8339 20.8379 39.5388 20.7703 39.3572 20.6126C39.1757 20.4549 39.0168 20.1621 38.926 19.7115L35.4079 5.18132L31.9125 19.689C31.799 20.1396 31.6628 20.4324 31.4813 20.5901C31.2997 20.7478 30.9819 20.8154 30.5734 20.8154H28.6214ZM57.7875 21.4236C56.6072 21.4236 55.427 21.2885 54.2921 21.0181C53.1572 20.7478 52.272 20.4549 51.6819 20.117C51.3188 19.9143 51.0691 19.689 50.9783 19.4863C50.8875 19.2835 50.8421 19.0582 50.8421 18.8555V17.7066C50.8421 17.2335 51.0237 17.0082 51.3641 17.0082C51.5003 17.0082 51.6365 17.0308 51.7727 17.0758C51.9089 17.1209 52.1132 17.211 52.3401 17.3011C53.1118 17.639 53.9516 17.9093 54.8368 18.0896C55.7447 18.2698 56.6299 18.3599 57.5378 18.3599C58.9678 18.3599 60.0799 18.1121 60.8516 17.6165C61.6234 17.1209 62.0319 16.4 62.0319 15.4764C62.0319 14.8456 61.8276 14.3275 61.4191 13.8995C61.0105 13.4714 60.2388 13.0885 59.1266 12.728L55.8355 11.7143C54.1786 11.1962 52.953 10.4302 52.2039 9.41648C51.4549 8.42528 51.0691 7.32143 51.0691 6.15C51.0691 5.20385 51.2734 4.37033 51.6819 3.64945C52.0905 2.92857 52.6352 2.2978 53.3161 1.8022C53.997 1.28407 54.7688 0.9011 55.6766 0.63077C56.5845 0.36044 57.5378 0.247803 58.5365 0.247803C59.0359 0.247803 59.5579 0.27033 60.0572 0.337913C60.5793 0.405495 61.0559 0.495605 61.5326 0.585715C61.9865 0.698352 62.4178 0.81099 62.8263 0.946154C63.2349 1.08132 63.5526 1.21648 63.7796 1.35165C64.0974 1.53187 64.3243 1.71209 64.4605 1.91484C64.5967 2.09506 64.6648 2.34286 64.6648 2.65824V3.71703C64.6648 4.19011 64.4832 4.43791 64.1428 4.43791C63.9612 4.43791 63.6661 4.3478 63.2803 4.16758C61.9865 3.58187 60.5339 3.28901 58.9224 3.28901C57.6286 3.28901 56.6072 3.49176 55.9036 3.91978C55.2 4.3478 54.8368 5.0011 54.8368 5.92473C54.8368 6.5555 55.0638 7.09616 55.5178 7.52418C55.9717 7.9522 56.8115 8.38022 58.0145 8.76319L61.2375 9.77693C62.8717 10.2951 64.052 11.0159 64.7556 11.9396C65.4592 12.8632 65.7997 13.922 65.7997 15.0934C65.7997 16.0621 65.5954 16.9407 65.2095 17.7066C64.801 18.4725 64.2563 19.1484 63.5526 19.689C62.849 20.2522 62.0092 20.6577 61.0332 20.9506C60.0118 21.2659 58.9451 21.4236 57.7875 21.4236Z" fill="#252F3E"/>
<path fill-rule="evenodd" clip-rule="evenodd" d="M62.0773 32.3719C54.6099 37.8461 43.7605 40.7521 34.4319 40.7521C21.3582 40.7521 9.57829 35.9538 0.680919 27.9791C-0.0226998 27.3483 0.612827 26.4923 1.45263 26.9879C11.0763 32.5296 22.947 35.8862 35.2263 35.8862C43.5109 35.8862 52.6125 34.1741 60.9878 30.6598C62.2362 30.0967 63.303 31.4708 62.0773 32.3719Z" fill="#FF9900"/>
<path fill-rule="evenodd" clip-rule="evenodd" d="M65.1868 28.8576C64.2336 27.6411 58.877 28.2719 56.4484 28.5648C55.722 28.6549 55.6085 28.0241 56.2668 27.551C60.5339 24.5774 67.5474 25.4334 68.3645 26.4246C69.1816 27.4384 68.1375 34.3994 64.1428 37.7334C63.5299 38.2516 62.9398 37.9812 63.2122 37.3054C64.1201 35.0752 66.1401 30.0516 65.1868 28.8576Z" fill="#FF9900"/>
</g>
<defs>
<clipPath id="clip0_420_29831">
<rect width="69" height="41" fill="white"/>
</clipPath>
</defs>
</svg>
