<svg width="103" height="48" viewBox="0 0 103 48" fill="none" xmlns="http://www.w3.org/2000/svg">
<path d="M4.03761 20.2405C2.95928 21.2176 2.56681 23.4315 4.51072 24.7257L12.2658 30.0512L8.50562 21.4286C7.71767 19.3938 5.56209 18.9501 4.03761 20.2405Z" fill="#4F5461"/>
<path d="M10.7627 16.0353C9.4951 16.061 7.59164 17.564 8.43873 19.8589L12.3494 29.0418L13.7237 19.3832C14.0416 16.9833 12.2175 15.8754 10.7627 16.0353Z" fill="#4F5461"/>
<path d="M14.2682 19.0155H15.0059C15.0059 19.0155 15.3998 19.0155 15.4535 19.201C15.1632 19.4376 14.373 19.4672 14.4779 20.7311L15.718 29.0417L19.5926 19.8342C20.3851 17.7784 18.7216 16.0614 17.246 16.0089C17.1771 16.004 17.1079 16 17.0363 16C15.7118 16 14.1941 16.9607 14.2682 19.0155Z" fill="#4F5461"/>
<path d="M19.4718 21.5216L15.8203 30.0309L23.5693 24.6835C25.3556 23.4162 25.0675 21.3901 24.0676 20.3886C23.6484 19.9172 22.8787 19.5531 22.0634 19.5531C21.1002 19.5529 20.0694 20.0639 19.4718 21.5216Z" fill="#4F5461"/>
<path d="M22.7002 25.8943L15.3926 31H24.3903C26.2363 31 27.4226 29.0961 26.8953 27.349C26.5421 26.2508 25.4971 25.3888 24.2841 25.3876C23.7736 25.3878 23.2321 25.5416 22.7002 25.8943Z" fill="#4F5461"/>
<path d="M3.8416 31H12.6891L5.39409 25.8993C3.70876 24.8151 1.81375 25.4495 1.12962 27.2487C0.54971 29.3083 1.99762 31 3.8416 31Z" fill="#4F5461"/>
<path d="M30.25 24.5348C30.25 26.8272 32.1234 30.9999 39.2769 30.9999C45.8722 30.9999 47.9553 27.9726 47.9553 26.5846H42.8493C42.8493 26.5846 42.6068 28.4184 39.7265 28.4184C36.8443 28.4184 36.0648 26.012 36.0648 24.6205C36.0648 23.2343 36.8443 20.9578 39.7265 20.9578C42.6068 20.9578 42.8493 22.5544 42.8493 22.5544H47.9553C47.9553 21.1647 46.4269 18.1802 39.2769 18.1802C32.1234 18.1802 30.25 22.6241 30.25 24.5348Z" fill="#4F5461"/>
<path d="M83.8301 24.5349C83.8301 26.8273 85.7054 31 92.8569 31C99.4515 31 101.535 27.9728 101.535 26.5847H96.433C96.433 26.5847 96.1894 28.4185 93.3084 28.4185C90.4259 28.4185 89.6457 26.0121 89.6457 24.6206C89.6457 23.2344 90.4259 20.9579 93.3084 20.9579C96.1894 20.9579 96.433 22.5545 96.433 22.5545H101.535C101.535 21.1648 100.009 18.1803 92.8569 18.1803C85.7055 18.1803 83.8301 22.6242 83.8301 24.5349Z" fill="#4F5461"/>
<path d="M61.9239 18.4025V26.1647L55.9779 18.4025H49.2891V30.6972H53.8747V22.8458L59.7166 30.6972H66.5098V18.4025H61.9239Z" fill="#4F5461"/>
<path d="M76.619 27.76V27.7762H72.8012V25.5187H76.619V25.526C77.4342 25.526 78.093 26.0274 78.093 26.6448C78.093 27.2606 77.4342 27.76 76.619 27.76ZM72.8362 20.7937H76.5149V20.7989C77.1381 20.7989 77.6435 21.2092 77.6435 21.7143C77.6435 22.2213 77.1381 22.628 76.5149 22.628V22.6335H72.8362V20.7937ZM80.3686 24.1609C81.2028 24.1609 82.9468 23.1919 82.9468 21.3147C82.9468 18.6415 77.9727 18.4025 77.2096 18.4025H68.0449V30.6972H77.2096C81.6175 30.6972 83.3882 29.3037 83.3882 26.9767C83.3882 24.6497 80.3686 24.1609 80.3686 24.1609Z" fill="#4F5461"/>
</svg>
