<svg width="31" height="31" viewBox="0 0 31 31" fill="none" xmlns="http://www.w3.org/2000/svg">
<path d="M18.2983 5.74375C18.2627 7.17077 17.2661 9.20428 15.5931 9.20428C14.5609 9.20428 13.7066 8.34807 13.7066 7.31348V7.2778C13.6711 5.60105 12.9236 4.13836 11.749 3.10377C10.8591 2.35458 9.75568 1.85513 8.54547 1.71242C9.57771 0.642159 11.0371 0 12.6388 0C14.6677 0 16.5186 1.17729 17.5864 2.88971C18.0847 3.74593 18.3339 4.78052 18.2983 5.74375Z" fill="white"/>
<path d="M11.6777 5.88659C12.5675 7.0282 13.1014 9.20441 11.82 10.2747C11.0014 10.9525 9.82675 10.8455 9.15046 10.0606C8.04704 8.81198 6.51648 8.16982 4.98593 8.13415C3.81132 8.09847 2.63671 8.45522 1.64007 9.13306C1.74685 7.67036 2.42314 6.20767 3.66894 5.17308C5.27068 3.85309 7.51312 3.46065 9.43522 4.24552C10.3251 4.5666 11.1081 5.1374 11.6777 5.88659Z" fill="white"/>
<path d="M9.6489 13.521C9.93366 11.8799 8.08275 10.5242 6.69458 10.2388C5.80472 10.0604 4.80808 10.1318 3.91822 10.4172C1.92494 11.095 0.465574 12.8074 0.0740362 14.841C-0.175124 16.4463 0.216413 17.9804 1.07068 19.1934C1.39103 18.0161 2.10291 16.9815 2.99277 16.268C4.16738 15.3047 5.76912 14.8053 7.40646 15.055H7.44206C8.47429 15.2334 9.47093 14.5555 9.6489 13.521Z" fill="white"/>
<path d="M5.66238 16.8033C6.90818 16.1254 9.18621 15.9827 10.0049 17.4097C10.5388 18.3016 10.2184 19.4789 9.32859 20.014C7.90482 20.8703 7.01496 22.2616 6.69461 23.7957C6.48104 24.9373 6.58783 26.1502 7.12174 27.2562C5.69797 26.8994 4.38098 25.9719 3.59791 24.5805C2.56567 22.7611 2.60126 20.5135 3.66909 18.7297C4.16741 17.9092 4.84371 17.2314 5.66238 16.8033Z" fill="white"/>
<path d="M12.7812 20.1566C11.2507 19.5858 9.61335 21.1555 9.07944 22.4755C8.75909 23.3317 8.6523 24.2949 8.75909 25.2225C9.07944 27.2917 10.5032 29.0398 12.4609 29.7533C13.9559 30.3241 15.522 30.1814 16.8746 29.5392C15.7712 29.0041 14.9169 28.1836 14.3474 27.149C13.5999 25.7933 13.3863 24.1522 13.9203 22.5825C14.2762 21.6193 13.7779 20.5133 12.7812 20.1566Z" fill="white"/>
<path d="M15.344 24.6159C14.8813 23.2602 15.1305 21.0127 16.6966 20.4419C17.6932 20.0851 18.7611 20.5846 19.117 21.5835C19.7221 23.1175 20.9323 24.2591 22.3917 24.83C23.4595 25.2581 24.7053 25.3294 25.8799 25.044C25.2748 26.3997 24.1358 27.5056 22.6409 28.0764C20.6832 28.7899 18.4407 28.3618 16.9102 26.9705C16.1983 26.2927 15.6288 25.5078 15.344 24.6159Z" fill="white"/>
<path d="M19.9001 18.1586C19.0458 19.5857 20.3272 21.4765 21.5374 22.2257C22.2849 22.7251 23.246 22.9748 24.2426 22.9748C26.3071 23.0462 28.3003 21.9402 29.3326 20.1208C30.1513 18.7295 30.2936 17.1597 29.9021 15.7327C29.1902 16.7316 28.1936 17.4451 27.0901 17.8376C25.5952 18.337 23.9578 18.23 22.4985 17.4451C21.573 16.9457 20.434 17.2668 19.9001 18.1586Z" fill="white"/>
<path d="M24.741 16.4108C23.3172 16.6249 21.146 15.9827 20.8612 14.3416C20.6476 13.3427 21.3595 12.3438 22.3918 12.1654H22.4273C24.0647 11.8443 25.3817 10.8454 26.1648 9.52543C26.7699 8.52652 27.0546 7.34923 26.9478 6.13626C28.158 6.9568 29.0835 8.27679 29.3326 9.84651C29.6886 11.88 28.8699 14.0205 27.2682 15.3049C26.5207 15.8757 25.6308 16.3038 24.741 16.4108Z" fill="white"/>
<path d="M19.1525 10.8452C20.4339 11.9155 22.4984 10.9879 23.4594 9.91763C24.0646 9.23979 24.4917 8.3479 24.6697 7.42034C25.0968 5.38684 24.3493 3.21063 22.7476 1.89064C21.5018 0.856048 19.9712 0.427942 18.5118 0.570644C19.3661 1.46253 19.9 2.56847 20.078 3.71009C20.3272 5.24414 19.9356 6.88521 18.9034 8.16953C18.2271 8.99006 18.3339 10.1674 19.1525 10.8452Z" fill="white"/>
</svg>
