<svg width="32" height="32" viewBox="0 0 32 32" fill="none" xmlns="http://www.w3.org/2000/svg">
<path fill-rule="evenodd" clip-rule="evenodd" d="M10.9997 18C12.1039 18 13.1375 18.1386 14.1006 18.3951L14.5091 18.5122C14.75 18.5862 14.8853 18.8415 14.8113 19.0823C14.7817 19.1786 14.7211 19.2623 14.639 19.3206L14.5745 19.3668C13.009 20.5053 11.6794 22.0203 10.629 23.8397L10.4944 24.0773C10.2125 24.5149 10.0429 25.197 9.98548 26.1236C9.9202 27.1781 9.04589 28 7.98931 28H2.40959C1.07881 28 0 26.9926 0 25.75C0 25.3922 0.0913741 25.0396 0.26654 24.7214C2.36621 20.9071 5.94394 18 10.9997 18ZM21.9998 19C26.596 19 29.8485 21.6164 31.7572 25.0493C32.3103 26.0439 31.8864 27.2647 30.8104 27.776C30.5006 27.9232 30.1573 28 29.809 28H14.1905L14.0341 27.9949L13.9426 27.9872L13.786 27.9655L13.6871 27.9463L13.532 27.9069L13.3788 27.8564L13.1966 27.78L12.9679 27.6555L12.8116 27.5485L12.6707 27.4333L12.555 27.3221L12.4429 27.1961L12.3207 27.0304L12.2437 26.9042L12.1489 26.7103L12.0896 26.5501L12.0567 26.4346L12.0227 26.2679C12.0077 26.172 12 26.0744 12 25.975C12 25.653 12.0831 25.3356 12.2423 25.0492L12.4199 24.7388L12.6447 24.3698L12.8565 24.0439L13.0381 23.7795L13.3233 23.39L13.5902 23.0509L13.7505 22.858L13.9678 22.6087L14.2504 22.3038L14.4948 22.0563L14.7829 21.7827L15.028 21.5643L15.1492 21.4609L15.4888 21.1866L15.7413 20.9967L16.0356 20.7896L16.2118 20.6724L16.5867 20.4399L16.912 20.2554L17.1941 20.1078L17.5101 19.9554C18.829 19.3473 20.3252 19 21.9998 19ZM22 7C24.2091 7 26 8.86548 26 11.1667C26 13.4679 24.8197 17 22 17C19.1803 17 18 13.4679 18 11.1667C18 8.86548 19.7909 7 22 7ZM11 4C13.7614 4 16 6.23858 16 9C16 11.7614 14.5247 16 11 16C7.47534 16 6 11.7614 6 9C6 6.23858 8.23858 4 11 4Z" fill="#FF7A1A"/>
</svg>
