<svg width="20" height="20" viewBox="0 0 20 20" fill="none" xmlns="http://www.w3.org/2000/svg">
<path fill-rule="evenodd" clip-rule="evenodd" d="M13.4458 1.61572H6.26533C3.78679 1.61572 1.77753 3.62498 1.77753 6.10353V13.284C1.77753 15.7626 3.78679 17.7718 6.26533 17.7718H13.4458C15.9244 17.7718 17.9336 15.7626 17.9336 13.284V6.10353C17.9336 3.62498 15.9244 1.61572 13.4458 1.61572ZM16.3628 13.284C16.3579 14.893 15.0548 16.1961 13.4458 16.201H6.26529C4.65628 16.1961 3.35314 14.893 3.34821 13.284V6.10348C3.35314 4.49447 4.65628 3.19134 6.26529 3.18641H13.4458C15.0548 3.19134 16.3579 4.49447 16.3628 6.10348V13.284ZM14.1189 6.32785C14.6146 6.32785 15.0165 5.926 15.0165 5.43029C15.0165 4.93458 14.6146 4.53273 14.1189 4.53273C13.6232 4.53273 13.2213 4.93458 13.2213 5.43029C13.2213 5.926 13.6232 6.32785 14.1189 6.32785ZM9.85558 5.65476C7.62488 5.65476 5.81655 7.46309 5.81655 9.69378C5.81655 11.9245 7.62488 13.7328 9.85558 13.7328C12.0863 13.7328 13.8946 11.9245 13.8946 9.69378C13.897 8.62183 13.4722 7.5931 12.7142 6.83512C11.9563 6.07714 10.9275 5.65237 9.85558 5.65476ZM7.38724 9.69373C7.38724 11.0569 8.49233 12.162 9.85553 12.162C11.2187 12.162 12.3238 11.0569 12.3238 9.69373C12.3238 8.33053 11.2187 7.22543 9.85553 7.22543C8.49233 7.22543 7.38724 8.33053 7.38724 9.69373Z" fill="white"/>
</svg>
