<svg width="21" height="20" viewBox="0 0 21 20" fill="none" xmlns="http://www.w3.org/2000/svg">
<path fill-rule="evenodd" clip-rule="evenodd" d="M4.18538 1.61572H16.7512C17.7427 1.61572 18.5464 2.41943 18.5464 3.41084V15.9767C18.5464 16.9681 17.7427 17.7718 16.7512 17.7718H4.18538C3.19396 17.7718 2.39026 16.9681 2.39026 15.9767V3.41084C2.39026 2.41943 3.19396 1.61572 4.18538 1.61572ZM6.87818 15.079C7.12603 15.079 7.32696 14.8781 7.32696 14.6303V8.34734C7.32696 8.09949 7.12603 7.89856 6.87818 7.89856H5.53183C5.28398 7.89856 5.08305 8.09949 5.08305 8.34734V14.6303C5.08305 14.8781 5.28398 15.079 5.53183 15.079H6.87818ZM6.20494 7.00115C5.46137 7.00115 4.8586 6.39838 4.8586 5.65481C4.8586 4.91125 5.46137 4.30847 6.20494 4.30847C6.9485 4.30847 7.55128 4.91125 7.55128 5.65481C7.55128 6.39838 6.9485 7.00115 6.20494 7.00115ZM15.4047 15.0792C15.6526 15.0792 15.8535 14.8783 15.8535 14.6304V10.5017C15.8826 9.07523 14.8281 7.85791 13.4121 7.68332C12.4221 7.59289 11.4628 8.05527 10.9169 8.88605V8.34751C10.9169 8.09966 10.716 7.89873 10.4681 7.89873H9.12177C8.87391 7.89873 8.67299 8.09966 8.67299 8.34751V14.6304C8.67299 14.8783 8.87391 15.0792 9.12177 15.0792H10.4681C10.716 15.0792 10.9169 14.8783 10.9169 14.6304V11.2646C10.9169 10.521 11.5197 9.91824 12.2632 9.91824C13.0068 9.91824 13.6096 10.521 13.6096 11.2646V14.6304C13.6096 14.8783 13.8105 15.0792 14.0584 15.0792H15.4047Z" fill="white"/>
</svg>
