<svg width="31" height="31" viewBox="0 0 31 31" fill="none" xmlns="http://www.w3.org/2000/svg">
<path fill-rule="evenodd" clip-rule="evenodd" d="M5.58265 8.93415C8.30554 6.60859 11.8321 5.45712 15.3955 5.73015C18.9588 6.0032 22.2708 7.67865 24.6113 10.3922C25.2194 11.0975 25.7123 11.8952 26.0716 12.7557C26.1027 12.8311 26.157 12.8945 26.2264 12.9368C27.0248 13.4232 27.7423 14.0328 28.3523 14.7431C28.9365 15.4259 29.4471 16.1692 29.8749 16.9603C29.8811 16.9729 29.8913 16.9833 29.9037 16.9897C29.916 16.9961 29.9303 16.9983 29.944 16.996C29.9579 16.9936 29.9705 16.9868 29.9802 16.9766C29.9899 16.9664 29.9958 16.9534 29.9974 16.9394C30.0756 16.311 30.1134 15.6782 30.1108 15.0449C30.1102 13.0672 29.7205 11.1092 28.9638 9.28344C28.2072 7.45773 27.0984 5.80041 25.7019 4.40685C22.8712 1.58406 19.0447 0 15.0565 0C11.0683 0 7.24182 1.58406 4.41114 4.40685C3.01336 5.80111 1.90397 7.45951 1.14691 9.28647C0.389841 11.1134 5.2924e-05 13.0729 0 15.0518C0 15.4233 0.0138642 15.7925 0.0415927 16.157C0.0422873 16.1718 0.0480248 16.186 0.0578495 16.1971C0.067674 16.2082 0.0809921 16.2156 0.0955841 16.2181C0.110176 16.2205 0.125161 16.2178 0.138042 16.2105C0.150923 16.2032 0.160921 16.1917 0.16637 16.1779C1.40799 13.3856 3.25915 10.9098 5.58265 8.93415ZM18.1921 16.5958C17.9575 16.7944 17.765 17.0384 17.626 17.3132C17.4541 17.6572 17.3692 18.0385 17.3788 18.4233C17.3885 18.8081 17.4924 19.1847 17.6813 19.5196C17.8702 19.8545 18.1384 20.1374 18.462 20.3434C18.7857 20.5494 19.1549 20.672 19.537 20.7006C19.8423 20.7237 20.1493 20.6867 20.4404 20.5914C20.7316 20.4963 21.001 20.344 21.233 20.1433C21.8726 19.5929 22.3693 18.8944 22.6805 18.1082C22.9917 17.3219 23.1079 16.4714 23.0192 15.6299C23.0163 15.6028 23.0053 15.5771 22.9875 15.5563C22.9698 15.5356 22.9462 15.5208 22.9198 15.5139C22.4848 15.398 22.0366 15.3394 21.5865 15.3398C20.3458 15.3419 19.1458 15.7852 18.1991 16.5911L18.1921 16.5958ZM23.6477 22.9526C24.9809 21.8097 25.946 20.2945 26.4205 18.5994C26.4242 18.5873 26.4313 18.5765 26.4409 18.5684C26.4506 18.5602 26.4624 18.5551 26.4749 18.5536C26.4874 18.5522 26.5001 18.5544 26.5114 18.56C26.5227 18.5657 26.532 18.5745 26.5384 18.5855C27.3198 19.9678 27.7186 21.535 27.6937 23.1244C27.692 23.2016 27.6679 23.2766 27.6244 23.3403C26.2271 25.452 24.3252 27.1783 22.0925 28.3607C19.8599 29.5433 17.3678 30.1444 14.8441 30.1095C12.3205 30.0743 9.84589 29.4039 7.64668 28.1598C5.44743 26.9156 3.5938 25.1372 2.25524 22.9874C2.20846 22.911 2.18815 22.8212 2.19747 22.732C2.63689 18.4546 4.7071 14.5141 7.97423 11.7364C9.72696 10.239 11.946 9.40498 14.2466 9.37911C16.5471 9.35324 18.7842 10.1371 20.5699 11.5948C20.5798 11.6033 20.5872 11.6144 20.5909 11.6269C20.5947 11.6395 20.5948 11.6529 20.5911 11.6654C20.5874 11.678 20.5802 11.6892 20.5702 11.6977C20.5603 11.7062 20.5481 11.7116 20.5352 11.7132C18.7823 11.9173 17.1294 12.6407 15.7867 13.7912C14.8826 14.5669 14.2278 15.5947 13.9053 16.7444C13.5829 17.8942 13.6071 19.1142 13.9751 20.2501C14.3485 21.3878 15.0495 22.3885 15.9895 23.1255C16.9295 23.8624 18.066 24.3024 19.255 24.3897C19.4087 24.403 19.563 24.4084 19.7172 24.406C21.1584 24.4061 22.5523 23.889 23.6477 22.948V22.9526Z" fill="white"/>
</svg>
