<svg fill="none" height="20" viewBox="0 0 76 20" width="76" xmlns="http://www.w3.org/2000/svg"><g fill="#8f94a2"><path clip-rule="evenodd" d="m24.3137 15.7483.9485-2.2921c1.0245.7967 2.3894 1.2109 3.7362 1.2109.994 0 1.6233-.3984 1.6233-1.0023-.0152-1.6882-5.9553-.3667-6.0009-4.59999-.0152-2.14984 1.8209-3.80648 4.4232-3.80648 1.5473 0 3.0917.39835 4.1952 1.30571l-.8877 2.33954c-1.0093-.67025-2.2648-1.14764-3.4595-1.14764-.8117 0-1.3468.39835-1.3468.90736.0152 1.6566 6.001.74928 6.0618 4.7929 0 2.1973-1.7905 3.7432-4.3624 3.7432-1.8848-.0031-3.6146-.4647-4.9309-1.4511zm36.4223-3.1204c-.4742.8599-1.3619 1.4479-2.3894 1.4479-1.517 0-2.7391-1.2741-2.7391-2.8485 0-1.57444 1.2251-2.84854 2.7391-2.84854 1.0244 0 1.9152.58805 2.3894 1.44798l2.6175-1.51121c-.9789-1.81472-2.8637-3.0572-5.0069-3.0572-3.1708 0-5.7426 2.67465-5.7426 5.97217 0 3.2974 2.5718 5.9721 5.7426 5.9721 2.1584 0 4.028-1.2267 5.0069-3.0572zm-25.8127-12.323701h3.2772v16.670801h-3.2772zm29.7161 0v16.670801h3.2771v-5.0016l3.8882 5.0016h4.1952l-4.9461-5.9405 4.5782-5.54222h-4.0128l-3.7057 4.60002v-9.788101z" fill-rule="evenodd"/><path d="m47.9383 12.6587c-.4742.8125-1.4531 1.4164-2.5566 1.4164-1.517 0-2.7391-1.2741-2.7391-2.8486 0-1.57441 1.2252-2.84851 2.7391-2.84851 1.1035 0 2.0824.63547 2.5566 1.46379zm0-7.16403v1.35314c-.535-.93898-1.8666-1.59342-3.2619-1.59342-2.8789 0-5.1437 2.64305-5.1437 5.95631 0 3.3133 2.2648 5.988 5.1437 5.988 1.3923 0 2.7238-.6513 3.2619-1.5934v1.3531h3.2771v-11.46373z"/><g clip-rule="evenodd" fill-rule="evenodd"><path d="m4.05833 12.643c0 1.1634-.90288 2.1024-2.0216 2.1024-1.118714 0-2.0215933-.9422-2.0215933-2.1024 0-1.1603.9028793-2.1025 2.0215933-2.1025h2.0216zm1.00928 0c0-1.1635.90288-2.1025 2.0216-2.1025s2.0216.939 2.0216 2.1025v5.2544c0 1.1635-.90288 2.1025-2.0216 2.1025s-2.0216-.939-2.0216-2.1025z"/><path d="m7.08927 4.20484c-1.11872 0-2.02159-.93897-2.02159-2.10242 0-1.163444.90287-2.10242 2.02159-2.10242s2.0216.938976 2.0216 2.10242v2.10242zm0 1.06544c1.11872 0 2.0216.93897 2.0216 2.10242 0 1.16344-.90288 2.10242-2.0216 2.10242h-5.06767c-1.118721 0-2.0216-.94214-2.0216-2.10242s.902879-2.10242 2.0216-2.10242z"/><path d="m15.1887 7.3727c0-1.16345.9029-2.10242 2.0216-2.10242s2.0216.93897 2.0216 2.10242c0 1.16344-.9029 2.10242-2.0216 2.10242h-2.0216zm-1.0093 0c0 1.16344-.9028 2.10242-2.0216 2.10242-1.1187 0-2.0216-.93898-2.0216-2.10242v-5.27028c0-1.163444.9029-2.10242 2.0216-2.10242 1.1188 0 2.0216.938976 2.0216 2.10242z"/><path d="m12.1576 15.795c1.1187 0 2.0216.939 2.0216 2.1024 0 1.1635-.9029 2.1025-2.0216 2.1025s-2.0216-.939-2.0216-2.1025v-2.1024zm0-1.0496c-1.1187 0-2.0216-.939-2.0216-2.1024 0-1.1635.9029-2.1025 2.0216-2.1025h5.0677c1.1187 0 2.0216.939 2.0216 2.1025 0 1.1634-.9029 2.1024-2.0216 2.1024z"/></g></g></svg>