<svg width="32" height="32" viewBox="0 0 32 32" fill="none" xmlns="http://www.w3.org/2000/svg">
<mask id="path-1-outside-1_36_14510" maskUnits="userSpaceOnUse" x="4" y="6" width="23" height="19" fill="black">
<rect fill="white" x="4" y="6" width="23" height="19"/>
<path fill-rule="evenodd" clip-rule="evenodd" d="M23.422 16.8208C23.2656 16.7193 23.1093 16.6112 22.9582 16.5067L22.8255 16.4152C21.5876 15.5712 20.1245 14.1135 19.8431 13.8285C19.6969 12.9955 19.438 11.9871 18.6165 10.8253C17.975 9.72921 16.8158 9.09349 16.118 8.79755C15.5216 7.3069 12.5729 7.08769 11.4363 7.01096C11.3013 7 11.1662 7 11.0311 7C8.78031 7 8.31889 8.50161 8.22886 9.12637C7.66615 9.15925 7.18222 9.29078 6.76581 9.52095C5.47158 10.2553 5.11145 11.735 5.03267 12.842C4.96515 13.8724 5.02142 14.2779 5.03267 14.3546C5.12271 15.1876 5.35904 15.8124 6.24812 16.4919C5.74057 18.7259 5.51237 21.2814 5.4534 21.9417C5.44438 22.0428 5.43932 22.0994 5.43782 22.1038L5.42657 22.1805L5.47158 22.2463C5.5166 22.312 6.72079 23.8356 9.36554 23.989C9.47808 24 9.60185 24 9.71439 24C12.5624 24 13.6318 21.8851 13.7069 21.7366L13.7097 21.7311L13.7547 21.6434L13.7209 21.5557C13.7209 21.5557 13.462 20.8652 13.8559 19.5938C14.1823 18.5416 15.3415 18.3552 15.6454 18.3333C16.2823 18.5993 17.6263 19.3652 18.9299 20.108C20.2023 20.8331 21.4361 21.5362 21.9364 21.7311C22.4429 21.9284 22.9268 22.038 23.3545 22.038C23.8609 22.038 24.2435 21.8846 24.4236 21.6215C24.7275 21.1502 24.6712 20.7008 24.2548 20.2953C24.3212 20.3082 24.3954 20.3173 24.4751 20.3271L24.4751 20.3271C24.5306 20.334 24.5887 20.3411 24.6487 20.3501C24.7837 20.372 24.9638 20.383 25.1326 20.383C25.7516 20.383 26.1005 20.098 26.1905 19.5061C26.2918 18.7937 25.1664 17.9716 23.422 16.8208ZM9.96198 9.57578C9.82141 9.52768 9.56031 9.4571 9.23277 9.40915C9.46867 8.71282 10.1479 7.76967 12.1012 7.91007C12.6045 7.94472 13.4821 8.10626 14.3346 8.2995C14.3346 8.2995 11.5953 8.03704 10.4334 9.09557C10.272 9.24264 10.1262 9.41123 9.99624 9.58648L9.96198 9.57578ZM11.1324 15.4507C10.9919 15.7493 10.7917 16.0385 10.5368 16.2874C10.9927 16.6785 11.5717 17.0247 12.1642 17.3312C13.2446 17.8902 13.7848 17.3641 14.0774 16.6626C14.37 15.9612 14.1899 15.172 13.1433 14.1855C12.7082 13.7754 12.2186 13.5339 11.7627 13.398C11.6295 14.2436 11.3404 15.0087 11.1324 15.4507ZM14.3087 10.4106C14.2664 10.2793 14.3768 10.1096 14.6561 10.052C14.9354 9.99436 15.2243 10.052 15.3737 10.3113C15.5231 10.5706 15.2406 10.6987 15.0782 10.7339C14.9159 10.7691 14.4126 10.7339 14.3087 10.4106ZM15.5749 12.1189C15.8238 12.1657 15.9984 12.4151 16.0503 12.7461C16.066 12.0716 15.7121 11.5004 15.1709 11.3986C14.5402 11.28 13.894 11.844 13.7274 12.6581C13.5609 13.4723 13.9371 14.2285 14.5678 14.3471C14.8312 14.3966 15.0974 14.3271 15.3301 14.17C15.272 14.1813 15.2133 14.1821 15.1551 14.1711C14.7857 14.1017 14.5801 13.5859 14.696 13.0192C14.7122 12.94 14.7339 12.8639 14.7602 12.7919C14.8572 12.8873 15.003 12.8955 15.0611 12.8766C15.1423 12.8502 15.2836 12.7541 15.2089 12.5596C15.1639 12.4424 15.0934 12.3801 15.014 12.3586C15.1781 12.1773 15.3798 12.0823 15.5749 12.1189ZM24.5475 18.432C24.5142 18.4202 24.4823 18.4102 24.4519 18.4019C24.2503 18.3392 24.112 18.3643 24.0524 18.4319C24.0163 18.4749 24.0388 18.5416 24.095 18.6214C24.134 18.6791 24.1918 18.7432 24.2589 18.8103C24.3219 18.8746 24.3923 18.9417 24.4621 19.0081L24.4622 19.0082L24.4623 19.0083L24.4624 19.0084C24.5028 19.0468 24.543 19.0851 24.5814 19.1225C24.7797 19.3048 24.6653 19.4977 24.5759 19.588C24.5642 19.586 24.5531 19.5844 24.5419 19.5829L24.5419 19.5829L24.5419 19.5829L24.5418 19.5829L24.5418 19.5829C24.5221 19.5801 24.5024 19.5774 24.4799 19.5719C23.556 19.3905 19.4084 17.6492 17.0901 16.6297C16.9907 16.586 18.6436 17.8335 20.1591 18.8588C21.1652 19.5396 22.6357 20.3404 23.786 20.9096C24.0318 21.0312 23.6993 21.4159 23.321 21.3554C21.8761 21.1245 17.7195 18.762 16.4975 18.0674L16.4975 18.0674L16.4974 18.0674L16.4974 18.0674L16.4968 18.0671C16.3035 17.9572 16.1837 17.8891 16.1601 17.878C15.5867 17.609 14.937 17.2948 14.9511 16.6297C14.9624 16.0959 15.377 15.4561 15.7709 15.5109C16.1648 15.5657 17.0409 15.5494 17.6149 15.2973C18.1755 15.0511 18.1885 14.763 18.1993 14.525L18.2001 14.5081C18.2114 14.267 18.3239 13.7737 18.9767 14.2341C19.025 14.2673 19.1815 14.4017 19.4142 14.6016C20.1036 15.1937 21.462 16.3603 22.6568 17.1715C23.0519 17.4403 23.433 17.692 23.7826 17.9229L23.7827 17.923L23.7829 17.9231L23.783 17.9232L23.7833 17.9234L23.7834 17.9234C24.0608 18.1067 24.3185 18.2769 24.5475 18.432ZM19.7865 16.2398C19.4939 16.3055 18.9425 16.0096 18.83 15.7356C18.6161 15.1985 19.2014 15.1876 19.5727 15.5273C19.9441 15.8781 20.0904 16.174 19.7865 16.2398ZM6.61909 21.0187C6.84023 21.1646 7.33716 21.4558 8.12424 21.6634L8.13729 22.8374C7.1437 22.4686 6.4953 21.8736 6.4953 21.8736L6.61909 21.0187ZM8.88188 21.8173L8.90171 23.0513C9.1425 23.0966 9.39546 23.1231 9.65773 23.1231L9.73182 23.1233C10.3929 23.1257 11.6057 23.1302 12.7976 21.6106C12.7976 21.6106 12.7526 21.2817 12.7751 20.8214L12.7268 20.8674C12.2768 21.2972 11.5949 21.9484 9.78153 21.8955C9.45702 21.8855 9.15725 21.8577 8.88188 21.8173ZM6.00048 13.8504C6.02213 14.3705 6.12707 14.9131 6.43696 15.2933C7.21227 16.5629 8.99905 16.2129 9.69137 15.5493C10.5579 14.7163 10.6705 13.0722 10.6705 12.1625C10.6705 11.2527 10.0065 10.5074 8.93733 10.2882C7.92583 10.0808 7.35755 10.3934 7.29922 10.4277C7.09426 10.5134 6.90081 10.6465 6.74325 10.8472C6.15804 11.5925 5.98923 13.412 6.00048 13.8504ZM7.20679 13.7297L7.01547 14.3873C7.01547 14.3873 8.96244 15.3847 9.35633 13.8831C9.53362 13.1304 8.96923 12.8302 8.5443 12.6041C8.29481 12.4714 8.0934 12.3643 8.11838 12.2062C8.21966 11.6362 9.32257 12.1733 9.32257 12.1733L9.57017 11.4718C8.21966 10.9786 7.65695 11.2197 7.44313 12.0308C7.2293 12.8419 7.7695 13.1159 8.1859 13.2913C8.60231 13.4557 8.77112 13.8393 8.39973 13.9927C8.01709 14.1462 7.20679 13.7297 7.20679 13.7297Z"/>
</mask>
<path d="M22.9582 16.5067L23.2498 16.0847L23.2495 16.0845L22.9582 16.5067ZM23.422 16.8208L23.7045 16.3926L23.7013 16.3905L23.422 16.8208ZM22.8255 16.4152L23.1168 15.993L23.1145 15.9914L22.8255 16.4152ZM19.8431 13.8285L19.3379 13.9172L19.3656 14.0749L19.4781 14.1889L19.8431 13.8285ZM18.6165 10.8253L18.1737 11.0844L18.1849 11.1034L18.1976 11.1214L18.6165 10.8253ZM16.118 8.79755L15.6417 8.98812L15.7211 9.18642L15.9177 9.26981L16.118 8.79755ZM11.4363 7.01096L11.3948 7.52231L11.4017 7.52278L11.4363 7.01096ZM8.22886 9.12637L8.25878 9.63848L8.67686 9.61405L8.7366 9.19954L8.22886 9.12637ZM6.76581 9.52095L6.51763 9.07196L6.51265 9.07478L6.76581 9.52095ZM5.03267 12.842L4.52097 12.8056L4.52078 12.8085L5.03267 12.842ZM5.03267 14.3546L5.54269 14.2995L5.54164 14.2898L5.54023 14.2802L5.03267 14.3546ZM6.24812 16.4919L6.74836 16.6056L6.82134 16.2844L6.55963 16.0843L6.24812 16.4919ZM5.4534 21.9417L4.94244 21.8961H4.94244L5.4534 21.9417ZM5.43782 22.1038L4.95243 21.9378L4.93713 21.9825L4.93027 22.0293L5.43782 22.1038ZM5.42657 22.1805L4.91902 22.106L4.88988 22.3046L5.00324 22.4702L5.42657 22.1805ZM5.47158 22.2463L5.04825 22.536L5.04826 22.536L5.47158 22.2463ZM9.36554 23.989L9.4153 23.4785L9.40529 23.4775L9.39526 23.4769L9.36554 23.989ZM13.7069 21.7366L13.2494 21.5044L13.2491 21.5051L13.7069 21.7366ZM13.7097 21.7311L13.2533 21.4968L13.2522 21.4989L13.7097 21.7311ZM13.7547 21.6434L14.211 21.8777L14.3159 21.6734L14.2334 21.459L13.7547 21.6434ZM13.7209 21.5557L13.2405 21.7358L13.2422 21.7401L13.7209 21.5557ZM13.8559 19.5938L13.366 19.4418L13.3659 19.442L13.8559 19.5938ZM15.6454 18.3333L15.843 17.8599L15.7303 17.8129L15.6084 17.8217L15.6454 18.3333ZM18.9299 20.108L18.6759 20.5537L18.9299 20.108ZM21.9364 21.7311L22.1227 21.2531L22.1227 21.2531L21.9364 21.7311ZM24.4236 21.6215L24.8471 21.9114L24.8547 21.8995L24.4236 21.6215ZM24.2548 20.2953L24.3529 19.7918L22.6647 19.4627L23.8969 20.6628L24.2548 20.2953ZM24.4751 20.3271L24.5594 19.8211L24.5486 19.8193L24.5377 19.818L24.4751 20.3271ZM24.4751 20.3271L24.3908 20.8331L24.4017 20.835L24.4126 20.8363L24.4751 20.3271ZM24.6487 20.3501L24.7309 19.8437L24.7246 19.8427L24.6487 20.3501ZM26.1905 19.5061L26.6977 19.5832L26.6984 19.5783L26.1905 19.5061ZM9.23277 9.40915L8.7469 9.24455L8.5494 9.82756L9.15846 9.91673L9.23277 9.40915ZM9.96198 9.57578L9.79584 10.0613L9.80904 10.0654L9.96198 9.57578ZM12.1012 7.91007L12.0644 8.42174L12.066 8.42184L12.1012 7.91007ZM14.3346 8.2995L14.2856 8.81015L14.448 7.79921L14.3346 8.2995ZM10.4334 9.09557L10.088 8.71636L10.088 8.71636L10.4334 9.09557ZM9.99624 9.58648L9.8433 10.0761L10.1912 10.1848L10.4083 9.89199L9.99624 9.58648ZM10.5368 16.2874L10.1784 15.9204L9.77746 16.3119L10.2028 16.6768L10.5368 16.2874ZM11.1324 15.4507L11.5966 15.6691L11.5966 15.6691L11.1324 15.4507ZM12.1642 17.3312L11.9285 17.7868L11.9285 17.7868L12.1642 17.3312ZM14.0774 16.6626L13.604 16.4651L14.0774 16.6626ZM13.1433 14.1855L12.7915 14.5588L12.7915 14.5588L13.1433 14.1855ZM11.7627 13.398L11.9092 12.9064L11.3472 12.7388L11.2559 13.3182L11.7627 13.398ZM14.6561 10.052L14.7598 10.5544L14.7598 10.5544L14.6561 10.052ZM14.3087 10.4106L14.797 10.2536L14.797 10.2535L14.3087 10.4106ZM15.3737 10.3113L14.9292 10.5674L14.9292 10.5674L15.3737 10.3113ZM15.0782 10.7339L14.9695 10.2326H14.9695L15.0782 10.7339ZM16.0503 12.7461L15.5435 12.8256L16.5631 12.7581L16.0503 12.7461ZM15.5749 12.1189L15.4801 12.6231L15.4801 12.6231L15.5749 12.1189ZM15.1709 11.3986L15.2657 10.8945L15.1709 11.3986ZM14.5678 14.3471L14.6626 13.8429V13.8429L14.5678 14.3471ZM15.3301 14.17L15.6171 14.5953L15.2326 13.6664L15.3301 14.17ZM15.1551 14.1711L15.2499 13.667L15.1551 14.1711ZM14.696 13.0192L15.1986 13.1221V13.1221L14.696 13.0192ZM14.7602 12.7919L15.1199 12.4262L14.5514 11.8668L14.2782 12.6162L14.7602 12.7919ZM15.0611 12.8766L15.2199 13.3644L15.2199 13.3644L15.0611 12.8766ZM15.2089 12.5596L14.73 12.7435L14.73 12.7435L15.2089 12.5596ZM15.014 12.3586L14.6337 12.0144L14.0719 12.6351L14.88 12.8538L15.014 12.3586ZM24.4519 18.4019L24.2997 18.8918L24.3081 18.8944L24.3167 18.8967L24.4519 18.4019ZM24.5475 18.432L24.3762 18.9156L24.8352 18.0073L24.5475 18.432ZM24.0524 18.4319L23.6672 18.093L23.6597 18.1019L24.0524 18.4319ZM24.095 18.6214L24.5201 18.3341L24.5147 18.3264L24.095 18.6214ZM24.2589 18.8103L24.6254 18.4513L24.6216 18.4476L24.2589 18.8103ZM24.4621 19.0081L24.8205 18.641L24.8158 18.6365L24.4621 19.0081ZM24.4622 19.0082L24.1038 19.3754L24.1127 19.3837L24.4622 19.0082ZM24.4623 19.0083L24.8202 18.6406L24.8118 18.6328L24.4623 19.0083ZM24.4624 19.0084L24.1045 19.3759L24.1087 19.3799L24.4624 19.0084ZM24.5814 19.1225L24.2234 19.49L24.2287 19.4951L24.2341 19.5001L24.5814 19.1225ZM24.5759 19.588L24.4869 20.0933L24.7516 20.1399L24.9406 19.9489L24.5759 19.588ZM24.5419 19.5829L24.6127 19.0747L24.6055 19.0739L24.5419 19.5829ZM24.5418 19.5829L24.4711 20.091L24.4782 20.0919L24.5418 19.5829ZM24.4799 19.5719L24.6014 19.0735L24.5901 19.0708L24.5788 19.0685L24.4799 19.5719ZM17.0901 16.6297L17.2966 16.1601H17.2966L17.0901 16.6297ZM20.1591 18.8588L19.8716 19.2837L20.1591 18.8588ZM23.786 20.9096L23.5585 21.3694L23.5585 21.3694L23.786 20.9096ZM23.321 21.3554L23.2401 21.862L23.321 21.3554ZM16.4975 18.0674L16.751 17.6215L16.7391 17.6147L16.7269 17.6086L16.4975 18.0674ZM16.4975 18.0674L16.2335 18.5073L16.2504 18.5175L16.268 18.5263L16.4975 18.0674ZM16.4974 18.0674L16.7614 17.6274L16.7512 17.6216L16.4974 18.0674ZM16.4968 18.0671L16.7506 17.6213L16.7503 17.6211L16.4968 18.0671ZM16.1601 17.878L15.9422 18.3425L15.9422 18.3425L16.1601 17.878ZM14.9511 16.6297L14.4382 16.6188L14.9511 16.6297ZM15.7709 15.5109L15.7002 16.019H15.7002L15.7709 15.5109ZM17.6149 15.2973L17.4086 14.8276L17.4086 14.8276L17.6149 15.2973ZM18.1993 14.525L17.6869 14.5015L17.6869 14.5018L18.1993 14.525ZM18.2001 14.5081L17.6877 14.4841L17.6877 14.4846L18.2001 14.5081ZM18.9767 14.2341L18.681 14.6533L18.686 14.6568L18.9767 14.2341ZM19.4142 14.6016L19.08 14.9907L19.08 14.9907L19.4142 14.6016ZM22.6568 17.1715L22.9453 16.7474L22.9449 16.7471L22.6568 17.1715ZM23.7826 17.9229L24.0672 17.4961L24.0654 17.4949L23.7826 17.9229ZM23.7827 17.923L23.4982 18.3499L23.5024 18.3526L23.7827 17.923ZM23.7829 17.9231L23.5025 18.3527L23.5033 18.3532L23.7829 17.9231ZM23.783 17.9232L24.0643 17.4942L24.0625 17.4931L23.783 17.9232ZM23.7833 17.9234L24.074 17.5006L24.0646 17.4944L23.7833 17.9234ZM23.7834 17.9234L23.4927 18.3462L23.5006 18.3515L23.7834 17.9234ZM18.83 15.7356L18.3533 15.9253L18.3554 15.9305L18.83 15.7356ZM19.7865 16.2398L19.678 15.7384L19.6741 15.7393L19.7865 16.2398ZM19.5727 15.5273L19.925 15.1543L19.919 15.1489L19.5727 15.5273ZM8.12424 21.6634L8.63719 21.6577L8.63285 21.2671L8.2551 21.1674L8.12424 21.6634ZM6.61909 21.0187L6.9016 20.5905L6.22719 20.1455L6.1114 20.9452L6.61909 21.0187ZM8.13729 22.8374L7.95877 23.3183L8.65855 23.5781L8.65025 22.8317L8.13729 22.8374ZM6.4953 21.8736L5.9876 21.8001L5.94876 22.0683L6.14847 22.2516L6.4953 21.8736ZM8.90171 23.0513L8.38879 23.0595L8.39552 23.4781L8.80688 23.5555L8.90171 23.0513ZM8.88188 21.8173L8.95619 21.3098L8.35927 21.2224L8.36896 21.8256L8.88188 21.8173ZM9.65773 23.1231L9.65901 22.6101H9.65773V23.1231ZM9.73182 23.1233L9.73371 22.6103L9.7331 22.6103L9.73182 23.1233ZM12.7976 21.6106L13.2013 21.9272L13.3353 21.7562L13.3059 21.541L12.7976 21.6106ZM12.7751 20.8214L13.2875 20.8464L13.3501 19.5646L12.4212 20.4501L12.7751 20.8214ZM12.7268 20.8674L12.3728 20.4961L12.3725 20.4965L12.7268 20.8674ZM9.78153 21.8955L9.76573 22.4083L9.76658 22.4083L9.78153 21.8955ZM6.43696 15.2933L6.87476 15.026L6.85661 14.9962L6.8346 14.9692L6.43696 15.2933ZM6.00048 13.8504L5.4876 13.8636L5.48794 13.8717L6.00048 13.8504ZM9.69137 15.5493L10.0463 15.9196L10.0469 15.9191L9.69137 15.5493ZM8.93733 10.2882L8.83429 10.7907L8.83429 10.7907L8.93733 10.2882ZM7.29922 10.4277L7.49713 10.9009L7.52925 10.8875L7.55927 10.8699L7.29922 10.4277ZM6.74325 10.8472L7.14673 11.164L7.14673 11.164L6.74325 10.8472ZM7.01547 14.3873L6.5229 14.244L6.40458 14.6508L6.78158 14.8439L7.01547 14.3873ZM7.20679 13.7297L7.44131 13.2735L6.88801 12.989L6.71422 13.5864L7.20679 13.7297ZM9.35633 13.8831L9.85269 14.0133L9.85566 14.0007L9.35633 13.8831ZM8.5443 12.6041L8.30339 13.057L8.30339 13.057L8.5443 12.6041ZM8.11838 12.2062L7.61321 12.1164L7.61167 12.1261L8.11838 12.2062ZM9.32257 12.1733L9.09799 12.6345L9.61493 12.8862L9.80631 12.344L9.32257 12.1733ZM9.57017 11.4718L10.0539 11.6426L10.2228 11.1641L9.74616 10.99L9.57017 11.4718ZM7.44313 12.0308L7.93916 12.1616L7.93917 12.1616L7.44313 12.0308ZM8.1859 13.2913L7.98674 13.7642L7.99751 13.7684L8.1859 13.2913ZM8.39973 13.9927L8.59071 14.4689L8.59561 14.4669L8.39973 13.9927ZM22.6665 16.9287C22.8166 17.0325 22.979 17.1448 23.1426 17.251L23.7013 16.3905C23.5523 16.2937 23.402 16.1899 23.2498 16.0847L22.6665 16.9287ZM22.5342 16.8375L22.6668 16.929L23.2495 16.0845L23.1168 15.993L22.5342 16.8375ZM19.4781 14.1889C19.7573 14.4717 21.2522 15.9635 22.5365 16.8391L23.1145 15.9914C21.9229 15.179 20.4917 13.7553 20.2082 13.4681L19.4781 14.1889ZM18.1976 11.1214C18.9606 12.2005 19.1994 13.1288 19.3379 13.9172L20.3484 13.7397C20.1943 12.8621 19.9154 11.7737 19.0353 10.5291L18.1976 11.1214ZM15.9177 9.26981C16.5831 9.55201 17.6167 10.1327 18.1737 11.0844L19.0592 10.5662C18.3332 9.32569 17.0485 8.63496 16.3183 8.32528L15.9177 9.26981ZM11.4017 7.52278C11.9711 7.56121 12.948 7.63323 13.8493 7.87016C14.2995 7.98851 14.7072 8.1422 15.0269 8.33787C15.3463 8.53329 15.5469 8.75103 15.6417 8.98812L16.5943 8.60698C16.3909 8.09874 15.9993 7.73008 15.5625 7.46276C15.1261 7.19569 14.6137 7.01028 14.1101 6.8779C13.1039 6.61339 12.0381 6.53743 11.4708 6.49914L11.4017 7.52278ZM11.0311 7.51299C11.1696 7.51299 11.2839 7.51327 11.3948 7.52227L11.4778 6.49966C11.3186 6.48673 11.1628 6.48701 11.0311 6.48701V7.51299ZM8.7366 9.19954C8.7737 8.94211 8.88636 8.52182 9.20107 8.17198C9.49996 7.83974 10.0326 7.51299 11.0311 7.51299V6.48701C9.77887 6.48701 8.95536 6.91106 8.43832 7.48582C7.93711 8.04297 7.77405 8.68587 7.72111 9.0532L8.7366 9.19954ZM7.01399 9.96991C7.35281 9.78262 7.75971 9.66764 8.25878 9.63848L8.19893 8.61425C7.57258 8.65086 7.01163 8.79893 6.51764 9.07199L7.01399 9.96991ZM5.54437 12.8784C5.62046 11.8091 5.96157 10.5671 7.01898 9.96712L6.51265 9.07478C4.9816 9.94353 4.60244 11.6609 4.52098 12.8056L5.54437 12.8784ZM5.54023 14.2802C5.53524 14.2461 5.47889 13.8776 5.54456 12.8756L4.52078 12.8085C4.4514 13.8671 4.5076 14.3096 4.52511 14.429L5.54023 14.2802ZM6.55963 16.0843C6.15924 15.7783 5.93376 15.5064 5.79484 15.2421C5.65501 14.9761 5.58409 14.6825 5.54269 14.2995L4.52266 14.4097C4.57129 14.8597 4.66356 15.295 4.88667 15.7195C5.1107 16.1457 5.44793 16.526 5.93661 16.8995L6.55963 16.0843ZM5.96435 21.9873C6.02344 21.3257 6.24936 18.8019 6.74836 16.6056L5.74788 16.3783C5.23177 18.6499 5.0013 21.237 4.94244 21.8961L5.96435 21.9873ZM5.92321 22.2698C5.93735 22.2285 5.94304 22.1931 5.94315 22.1925C5.94494 22.1825 5.94612 22.1742 5.94672 22.1699C5.94798 22.1608 5.94893 22.1523 5.94953 22.1469C5.95081 22.1353 5.95217 22.1214 5.95351 22.1072C5.95624 22.0783 5.9599 22.0373 5.96435 21.9873L4.94244 21.8961C4.93788 21.9472 4.9345 21.9851 4.93207 22.0108C4.93082 22.024 4.93007 22.0314 4.9297 22.0348C4.92947 22.0369 4.92972 22.0344 4.93038 22.0296C4.93068 22.0274 4.93159 22.0209 4.93314 22.0122C4.93392 22.0079 4.93534 22.0002 4.9375 21.9906C4.93861 21.9857 4.9402 21.9789 4.94233 21.971C4.94436 21.9634 4.94765 21.9518 4.95243 21.9378L5.92321 22.2698ZM5.93412 22.255L5.94537 22.1783L4.93027 22.0293L4.91902 22.106L5.93412 22.255ZM5.89491 21.9565L5.8499 21.8908L5.00324 22.4702L5.04825 22.536L5.89491 21.9565ZM9.39526 23.4769C6.94889 23.335 5.87546 21.9281 5.89491 21.9565L5.04826 22.536C5.15774 22.696 6.4927 24.3362 9.33583 24.5012L9.39526 23.4769ZM9.71439 23.487C9.59656 23.487 9.49853 23.4866 9.4153 23.4785L9.31579 24.4996C9.45764 24.5134 9.60713 24.513 9.71439 24.513V23.487ZM13.2491 21.5051C13.1952 21.6116 12.2567 23.487 9.71439 23.487V24.513C12.8682 24.513 14.0683 22.1586 14.1647 21.9681L13.2491 21.5051ZM13.2522 21.4989L13.2494 21.5044L14.1643 21.9688L14.1671 21.9633L13.2522 21.4989ZM13.2983 21.4092L13.2533 21.4968L14.166 21.9654L14.211 21.8777L13.2983 21.4092ZM13.2422 21.7401L13.276 21.8278L14.2334 21.459L14.1996 21.3713L13.2422 21.7401ZM13.3659 19.442C13.1514 20.1344 13.11 20.6843 13.1283 21.0755C13.1374 21.2705 13.1612 21.4244 13.185 21.5354C13.1968 21.5908 13.2086 21.6354 13.2185 21.6688C13.2235 21.6856 13.2279 21.6996 13.2317 21.7107C13.2336 21.7163 13.2352 21.7212 13.2367 21.7254C13.2375 21.7275 13.2382 21.7294 13.2388 21.7311C13.2391 21.732 13.2394 21.7328 13.2397 21.7336C13.2398 21.734 13.24 21.7344 13.2401 21.7347C13.2402 21.7349 13.2403 21.7352 13.2403 21.7353C13.2404 21.7355 13.2405 21.7358 13.7209 21.5557C14.2012 21.3757 14.2013 21.3759 14.2014 21.3762C14.2014 21.3763 14.2015 21.3765 14.2016 21.3767C14.2017 21.377 14.2018 21.3773 14.202 21.3776C14.2022 21.3782 14.2024 21.3788 14.2026 21.3794C14.203 21.3804 14.2033 21.3813 14.2036 21.3821C14.2041 21.3835 14.2044 21.3844 14.2044 21.3846C14.2046 21.385 14.2039 21.3829 14.2025 21.3783C14.1998 21.3691 14.1945 21.3498 14.1882 21.3206C14.1757 21.2623 14.1595 21.1642 14.1531 21.0276C14.1404 20.7557 14.1666 20.3246 14.3459 19.7456L13.3659 19.442ZM15.6084 17.8217C15.4148 17.8356 14.9792 17.8978 14.5331 18.1167C14.0791 18.3395 13.5829 18.7426 13.366 19.4418L14.3459 19.7458C14.4554 19.3928 14.7019 19.1767 14.9851 19.0377C15.2761 18.8949 15.572 18.8529 15.6823 18.845L15.6084 17.8217ZM19.1839 19.6623C17.899 18.9301 16.5173 18.1415 15.843 17.8599L15.4477 18.8067C16.0473 19.057 17.3537 19.8002 18.6759 20.5537L19.1839 19.6623ZM22.1227 21.2531C21.9092 21.17 21.5053 20.9626 20.9694 20.6686C20.4438 20.3803 19.8212 20.0255 19.1839 19.6623L18.6759 20.5537C19.311 20.9156 19.9415 21.2749 20.476 21.5681C21.0002 21.8557 21.4634 22.0974 21.7502 22.2091L22.1227 21.2531ZM23.3545 21.525C23.0096 21.525 22.5906 21.4354 22.1227 21.2531L21.7502 22.2091C22.2951 22.4214 22.844 22.551 23.3545 22.551V21.525ZM24.0003 21.3318C23.9592 21.3918 23.7864 21.525 23.3545 21.525V22.551C23.9354 22.551 24.5279 22.3774 24.8469 21.9113L24.0003 21.3318ZM23.8969 20.6628C24.0462 20.8082 24.0906 20.9211 24.1004 20.9983C24.1099 21.073 24.0957 21.1834 23.9925 21.3435L24.8547 21.8995C25.0554 21.5883 25.165 21.2383 25.1182 20.8692C25.0717 20.5024 24.8798 20.1879 24.6127 19.9278L23.8969 20.6628ZM24.5377 19.818C24.4533 19.8076 24.3982 19.8006 24.3529 19.7918L24.1566 20.7988C24.2442 20.8158 24.3374 20.8271 24.4125 20.8363L24.5377 19.818ZM24.5595 19.8211L24.5594 19.8211L24.3908 20.8331L24.3908 20.8331L24.5595 19.8211ZM24.7246 19.8427C24.6569 19.8326 24.5923 19.8247 24.5377 19.818L24.4126 20.8363C24.4689 20.8432 24.5204 20.8496 24.5727 20.8574L24.7246 19.8427ZM25.1326 19.87C24.9805 19.87 24.8298 19.8598 24.7309 19.8437L24.5664 20.8564C24.7376 20.8842 24.9471 20.896 25.1326 20.896V19.87ZM25.6833 19.429C25.6512 19.6401 25.5847 19.7285 25.5332 19.771C25.4785 19.8162 25.3672 19.87 25.1326 19.87V20.896C25.517 20.896 25.8896 20.8073 26.1866 20.562C26.4868 20.314 26.6397 19.964 26.6977 19.5832L25.6833 19.429ZM23.1395 17.249C24.0165 17.8276 24.7015 18.3005 25.155 18.709C25.3812 18.9127 25.5259 19.0796 25.6074 19.214C25.6869 19.345 25.686 19.41 25.6826 19.4339L26.6984 19.5783C26.7456 19.246 26.642 18.9411 26.4845 18.6816C26.329 18.4255 26.1023 18.1814 25.8417 17.9467C25.3217 17.4783 24.5718 16.9648 23.7045 16.3926L23.1395 17.249ZM9.15846 9.91673C9.45646 9.96035 9.68673 10.0238 9.7959 10.0611L10.1281 9.09042C9.95609 9.03158 9.66415 8.95385 9.30707 8.90157L9.15846 9.91673ZM12.138 7.3984C11.0733 7.32188 10.2924 7.53755 9.73207 7.92329C9.17408 8.30741 8.88998 8.82222 8.7469 9.24455L9.71863 9.57375C9.81146 9.29974 9.9849 8.99481 10.3138 8.76838C10.6404 8.54356 11.1757 8.35786 12.0644 8.42173L12.138 7.3984ZM14.448 7.79921C13.5932 7.60545 12.6824 7.43588 12.1365 7.39829L12.066 8.42184C12.5266 8.45356 13.3709 8.60706 14.2212 8.7998L14.448 7.79921ZM10.7789 9.47478C11.2224 9.07073 12.0407 8.87783 12.8608 8.81193C13.2523 8.78046 13.6116 8.78012 13.8734 8.7878C14.0038 8.79162 14.1091 8.79741 14.1807 8.80216C14.2165 8.80453 14.2439 8.80663 14.2617 8.80809C14.2706 8.80882 14.2772 8.80939 14.2812 8.80975C14.2832 8.80993 14.2846 8.81005 14.2854 8.81012C14.2857 8.81016 14.2859 8.81018 14.286 8.81018C14.286 8.81018 14.286 8.81018 14.2859 8.81018C14.2859 8.81017 14.2858 8.81017 14.2858 8.81017C14.2857 8.81016 14.2856 8.81015 14.3346 8.2995C14.3835 7.78885 14.3834 7.78884 14.3833 7.78883C14.3832 7.78882 14.3831 7.78881 14.383 7.7888C14.3827 7.78878 14.3825 7.78875 14.3822 7.78872C14.3815 7.78867 14.3808 7.78859 14.3798 7.78851C14.3779 7.78833 14.3753 7.7881 14.3721 7.78781C14.3657 7.78724 14.3568 7.78647 14.3453 7.78553C14.3225 7.78366 14.2899 7.78116 14.2485 7.77842C14.1658 7.77295 14.0479 7.7665 13.9035 7.76226C13.6153 7.75381 13.2171 7.75401 12.7786 7.78925C11.9387 7.85675 10.8063 8.06188 10.088 8.71636L10.7789 9.47478ZM10.4083 9.89199C10.5232 9.737 10.6473 9.59469 10.7789 9.47478L10.088 8.71636C9.89673 8.89058 9.72908 9.08547 9.58415 9.28097L10.4083 9.89199ZM9.80904 10.0654L9.8433 10.0761L10.1492 9.09682L10.1149 9.08612L9.80904 10.0654ZM10.8952 16.6545C11.1956 16.3611 11.4309 16.0211 11.5966 15.6691L10.6682 15.2322C10.5528 15.4775 10.3878 15.7159 10.1784 15.9204L10.8952 16.6545ZM12.3999 16.8756C11.8211 16.5761 11.2826 16.2513 10.8708 15.8981L10.2028 16.6768C10.7029 17.1058 11.3223 17.4732 11.9285 17.7868L12.3999 16.8756ZM13.604 16.4651C13.4761 16.7715 13.3322 16.94 13.1916 17.0084C13.079 17.0632 12.8518 17.1094 12.3999 16.8756L11.9285 17.7868C12.557 18.1121 13.1401 18.1746 13.6408 17.9308C14.1136 17.7006 14.3861 17.2552 14.5508 16.8601L13.604 16.4651ZM12.7915 14.5588C13.2807 15.02 13.5245 15.396 13.6271 15.6966C13.7239 15.9803 13.7046 16.2239 13.604 16.4651L14.5508 16.8601C14.7428 16.3999 14.7798 15.8981 14.5981 15.3653C14.4221 14.8493 14.0526 14.3376 13.4952 13.8122L12.7915 14.5588ZM11.6161 13.8896C12.0092 14.0068 12.4243 14.2128 12.7915 14.5588L13.4952 13.8122C12.9921 13.3381 12.428 13.061 11.9092 12.9064L11.6161 13.8896ZM11.5966 15.6691C11.8198 15.1948 12.127 14.3826 12.2694 13.4778L11.2559 13.3182C11.1321 14.1047 10.861 14.8227 10.6682 15.2323L11.5966 15.6691ZM14.5524 9.54959C14.3331 9.59485 14.1234 9.69551 13.9742 9.86769C13.8222 10.0431 13.7345 10.3009 13.8203 10.5676L14.797 10.2535C14.8406 10.389 14.787 10.4963 14.7495 10.5396C14.7147 10.5798 14.6998 10.5668 14.7598 10.5544L14.5524 9.54959ZM15.8182 10.0553C15.5131 9.52554 14.9438 9.46882 14.5524 9.54959L14.7598 10.5544C14.8366 10.5385 14.8868 10.5449 14.9095 10.5521C14.9146 10.5537 14.9178 10.5551 14.9195 10.556C14.9212 10.5569 14.9219 10.5574 14.9221 10.5576C14.9222 10.5577 14.9227 10.5581 14.9235 10.559C14.9244 10.56 14.9264 10.5625 14.9292 10.5674L15.8182 10.0553ZM15.187 11.2353C15.3083 11.2089 15.526 11.1408 15.6967 10.9781C15.7905 10.8887 15.889 10.7518 15.9197 10.5646C15.9508 10.374 15.9007 10.1984 15.8182 10.0553L14.9292 10.5674C14.9215 10.5539 14.892 10.4915 14.9071 10.399C14.9217 10.3099 14.9675 10.2558 14.989 10.2353C15.0082 10.217 15.0175 10.2154 15.0045 10.2212C14.9936 10.2261 14.9798 10.2304 14.9695 10.2326L15.187 11.2353ZM13.8203 10.5675C13.9508 10.9738 14.3109 11.1381 14.5324 11.2005C14.7604 11.2647 15.0125 11.2731 15.187 11.2353L14.9695 10.2326C14.9817 10.2299 14.9834 10.2307 14.972 10.2313C14.9622 10.2319 14.9472 10.2322 14.9284 10.2313C14.8895 10.2295 14.8473 10.2233 14.8106 10.2129C14.7723 10.2021 14.7572 10.1917 14.7576 10.192C14.762 10.1953 14.7848 10.2155 14.797 10.2536L13.8203 10.5675ZM16.5571 12.6666C16.4902 12.2404 16.2303 11.7202 15.6697 11.6148L15.4801 12.6231C15.4546 12.6183 15.455 12.6053 15.4744 12.6315C15.4963 12.661 15.5275 12.7237 15.5435 12.8256L16.5571 12.6666ZM15.0761 11.9028C15.2802 11.9411 15.5497 12.2064 15.5374 12.7342L16.5631 12.7581C16.5823 11.9368 16.1441 11.0596 15.2657 10.8945L15.0761 11.9028ZM14.23 12.7609C14.3661 12.0956 14.8316 11.8568 15.0761 11.9028L15.2657 10.8945C14.2489 10.7033 13.4218 11.5923 13.2248 12.5553L14.23 12.7609ZM14.6626 13.8429C14.4297 13.7991 14.0939 13.4261 14.23 12.7609L13.2248 12.5553C13.0278 13.5186 13.4446 14.6579 14.473 14.8513L14.6626 13.8429ZM15.0432 13.7448C14.9023 13.8399 14.7714 13.8634 14.6626 13.8429L14.473 14.8513C14.8911 14.9299 15.2924 14.8144 15.6171 14.5953L15.0432 13.7448ZM15.0603 14.6753C15.1856 14.6988 15.3096 14.6965 15.4276 14.6737L15.2326 13.6664C15.2331 13.6663 15.2352 13.666 15.2385 13.6659C15.2419 13.6659 15.2459 13.6662 15.2499 13.667L15.0603 14.6753ZM14.1934 12.9164C14.1186 13.2825 14.1415 13.6567 14.267 13.9716C14.3908 14.2821 14.6469 14.5976 15.0603 14.6753L15.2499 13.667C15.2939 13.6753 15.2625 13.6981 15.2201 13.5917C15.1794 13.4898 15.1576 13.3227 15.1986 13.1221L14.1934 12.9164ZM14.2782 12.6162C14.2432 12.7121 14.2147 12.8125 14.1934 12.9164L15.1986 13.1221C15.2098 13.0674 15.2246 13.0157 15.2421 12.9675L14.2782 12.6162ZM14.9024 12.3888C14.9503 12.3732 14.984 12.372 14.9944 12.3719C15.0091 12.3716 15.0204 12.373 15.0297 12.3749C15.0456 12.3782 15.0821 12.389 15.1199 12.4262L14.4004 13.1575C14.5352 13.2902 14.6932 13.3528 14.8207 13.3794C14.9362 13.4034 15.0823 13.4092 15.2199 13.3644L14.9024 12.3888ZM14.73 12.7435C14.7238 12.7273 14.7127 12.6876 14.7188 12.6319C14.7249 12.5753 14.7463 12.5254 14.7732 12.487C14.8188 12.4218 14.8712 12.3989 14.9024 12.3888L15.2199 13.3644C15.3322 13.3278 15.4959 13.2437 15.6138 13.0753C15.7535 12.8755 15.7825 12.6224 15.6878 12.3757L14.73 12.7435ZM14.88 12.8538C14.8327 12.841 14.7921 12.8162 14.763 12.7873C14.7356 12.7602 14.7285 12.7396 14.73 12.7435L15.6878 12.3757C15.5977 12.1412 15.419 11.9367 15.148 11.8634L14.88 12.8538ZM15.6697 11.6148C15.2363 11.5333 14.8671 11.7564 14.6337 12.0144L15.3944 12.7028C15.4376 12.655 15.4721 12.6342 15.489 12.6268C15.5033 12.6205 15.4977 12.6264 15.4801 12.6231L15.6697 11.6148ZM24.3167 18.8967C24.334 18.9015 24.3538 18.9076 24.3762 18.9156L24.7187 17.9485C24.6745 17.9328 24.6306 17.9189 24.5872 17.9071L24.3167 18.8967ZM24.4376 18.7708C24.3561 18.8634 24.2674 18.8767 24.2512 18.8784C24.2316 18.8804 24.2453 18.8749 24.2997 18.8918L24.6042 17.912C24.4569 17.8663 24.3006 17.842 24.1466 17.8577C23.9959 17.8732 23.8083 17.9328 23.6673 18.0931L24.4376 18.7708ZM24.5147 18.3264C24.5003 18.306 24.5218 18.3295 24.5363 18.3866C24.5446 18.4192 24.5539 18.4757 24.5429 18.5467C24.5312 18.6227 24.4986 18.6984 24.4452 18.762L23.6597 18.1019C23.5024 18.2891 23.5077 18.5043 23.5419 18.6391C23.5727 18.7602 23.6335 18.857 23.6753 18.9164L24.5147 18.3264ZM24.6216 18.4476C24.5609 18.3868 24.531 18.3504 24.52 18.3342L23.67 18.9087C23.737 19.0078 23.8227 19.0996 23.8961 19.173L24.6216 18.4476ZM24.8158 18.6365C24.7446 18.5688 24.6809 18.5081 24.6254 18.4513L23.8924 19.1692C23.9628 19.2411 24.0401 19.3146 24.1084 19.3796L24.8158 18.6365ZM24.8206 18.6411L24.8204 18.641L24.1038 19.3752L24.1039 19.3753L24.8206 18.6411ZM24.8118 18.6328L24.8118 18.6328L24.1127 19.3837L24.1127 19.3837L24.8118 18.6328ZM24.8202 18.6408L24.8201 18.6407L24.1044 19.3758L24.1045 19.3759L24.8202 18.6408ZM24.9393 18.755C24.8985 18.7152 24.8561 18.6749 24.8161 18.6368L24.1087 19.3799C24.1495 19.4188 24.1875 19.455 24.2234 19.49L24.9393 18.755ZM24.9406 19.9489C25.0245 19.8641 25.1507 19.7042 25.1912 19.4817C25.2394 19.2168 25.1501 18.9486 24.9286 18.7449L24.2341 19.5001C24.2315 19.4977 24.2087 19.4751 24.1924 19.4286C24.1759 19.3812 24.1752 19.3345 24.1818 19.2979C24.1878 19.2648 24.1987 19.2451 24.2025 19.2388C24.2065 19.2322 24.2092 19.2293 24.2112 19.2272L24.9406 19.9489ZM24.4712 20.091C24.4771 20.0918 24.4803 20.0922 24.4832 20.0927C24.4858 20.0931 24.4868 20.0932 24.4869 20.0933L24.6649 19.0828C24.6427 19.0789 24.6226 19.0762 24.6127 19.0748L24.4712 20.091ZM24.4783 20.0919L24.4783 20.0919L24.6055 19.0739L24.6055 19.0739L24.4783 20.0919ZM24.4782 20.0919L24.4783 20.0919L24.6055 19.0739L24.6055 19.0739L24.4782 20.0919ZM24.4782 20.0919L24.4782 20.0919L24.6055 19.0739L24.6055 19.0738L24.4782 20.0919ZM24.4782 20.0919L24.4782 20.0919L24.6055 19.0738L24.6054 19.0738L24.4782 20.0919ZM24.3585 20.0703C24.4092 20.0827 24.4527 20.0884 24.4711 20.091L24.6126 19.0748C24.6073 19.0741 24.6042 19.0736 24.6014 19.0732C24.5988 19.0728 24.5975 19.0726 24.5969 19.0725C24.5961 19.0724 24.598 19.0727 24.6014 19.0735L24.3585 20.0703ZM16.8836 17.0993C18.0463 17.6106 19.6674 18.3028 21.115 18.8904C21.8385 19.1841 22.5217 19.4529 23.084 19.6603C23.6322 19.8625 24.1031 20.0207 24.3811 20.0753L24.5788 19.0685C24.3948 19.0324 24.0008 18.9049 23.439 18.6977C22.8914 18.4957 22.2195 18.2315 21.5009 17.9398C20.064 17.3565 18.4521 16.6683 17.2966 16.1601L16.8836 17.0993ZM20.4465 18.434C19.696 17.9262 18.9097 17.3622 18.3231 16.9303C18.0298 16.7143 17.7883 16.5328 17.6276 16.409C17.5462 16.3463 17.4896 16.3015 17.458 16.2754C17.4377 16.2587 17.4415 16.2609 17.4535 16.2728C17.457 16.2763 17.4693 16.2886 17.484 16.3066C17.4913 16.3154 17.5051 16.3328 17.5202 16.3567C17.5304 16.3729 17.5661 16.4299 17.5854 16.513C17.6044 16.5943 17.6312 16.8337 17.4233 17.0152C17.2592 17.1585 17.0755 17.1424 17.0444 17.1399C16.9871 17.1351 16.9442 17.1216 16.9284 17.1164C16.908 17.1098 16.8923 17.1031 16.8836 17.0993L17.2966 16.1601C17.295 16.1594 17.2238 16.1252 17.129 16.1174C17.0972 16.1148 16.913 16.0988 16.7486 16.2423C16.5404 16.4241 16.5672 16.6639 16.5862 16.7457C16.6057 16.8294 16.6417 16.8871 16.6525 16.9042C16.6681 16.9289 16.6827 16.9473 16.6909 16.9573C16.7075 16.9776 16.7225 16.9928 16.7296 16.9998C16.7555 17.0257 16.7861 17.0512 16.8045 17.0664C16.8502 17.1041 16.9183 17.1577 17.0015 17.2218C17.1701 17.3516 17.4179 17.5379 17.7148 17.7565C18.3087 18.1937 19.1066 18.7661 19.8716 19.2837L20.4465 18.434ZM24.0136 20.4498C22.8721 19.885 21.425 19.096 20.4465 18.434L19.8716 19.2837C20.9054 19.9832 22.3993 20.7957 23.5585 21.3694L24.0136 20.4498ZM23.2401 21.862C23.6154 21.922 23.9563 21.7657 24.1575 21.5561C24.255 21.4547 24.3719 21.2857 24.3827 21.0638C24.3884 20.9445 24.3619 20.8146 24.2879 20.6955C24.215 20.5781 24.1136 20.4994 24.0136 20.4498L23.5585 21.3694C23.5199 21.3503 23.462 21.3102 23.4164 21.2369C23.3698 21.1618 23.3546 21.0815 23.3579 21.0143C23.3609 20.9516 23.3791 20.9075 23.3907 20.885C23.4027 20.8617 23.4138 20.8493 23.4176 20.8455C23.4241 20.8387 23.4219 20.8429 23.4116 20.8466C23.4035 20.8496 23.4004 20.8486 23.402 20.8489L23.2401 21.862ZM16.244 18.5134C16.8548 18.8606 18.2079 19.6297 19.5909 20.3414C20.2821 20.6971 20.9867 21.0415 21.6134 21.3127C22.2268 21.5782 22.8094 21.7932 23.2401 21.862L23.402 20.8489C23.1102 20.8022 22.6314 20.6353 22.0209 20.3711C21.4237 20.1127 20.7417 19.7798 20.0604 19.4292C18.6984 18.7283 17.3621 17.9688 16.751 17.6215L16.244 18.5134ZM16.268 18.5263L16.2681 18.5263L16.7269 17.6086L16.7269 17.6086L16.268 18.5263ZM16.2335 18.5073L16.2335 18.5073L16.7614 17.6276L16.7614 17.6275L16.2335 18.5073ZM16.2335 18.5073L16.2335 18.5073L16.7614 17.6275L16.7613 17.6275L16.2335 18.5073ZM16.243 18.5128L16.2436 18.5132L16.7512 17.6216L16.7506 17.6213L16.243 18.5128ZM15.9422 18.3425C15.9305 18.337 15.9275 18.3348 15.9484 18.3464C15.9636 18.3547 15.985 18.3667 16.0131 18.3825C16.069 18.414 16.1463 18.4579 16.2433 18.513L16.7503 17.6211C16.5757 17.5218 16.4257 17.436 16.3779 17.4136L15.9422 18.3425ZM14.4382 16.6188C14.4269 17.1525 14.6942 17.5337 15.0052 17.7951C15.2977 18.0411 15.667 18.2133 15.9422 18.3425L16.3779 17.4136C16.0798 17.2737 15.8374 17.1544 15.6653 17.0098C15.5116 16.8805 15.4612 16.772 15.464 16.6406L14.4382 16.6188ZM15.8416 15.0028C15.3439 14.9335 14.9793 15.296 14.7976 15.5548C14.5924 15.8473 14.4463 16.2379 14.4382 16.6188L15.464 16.6406C15.4672 16.4877 15.5341 16.2915 15.6374 16.1442C15.6874 16.073 15.7312 16.0347 15.7553 16.0192C15.7783 16.0044 15.7557 16.0267 15.7002 16.019L15.8416 15.0028ZM17.4086 14.8276C17.1949 14.9214 16.8956 14.9815 16.5822 15.008C16.2717 15.0342 15.9932 15.0239 15.8416 15.0028L15.7002 16.019C15.9424 16.0527 16.299 16.0616 16.6686 16.0303C17.0352 15.9993 17.4609 15.9252 17.8212 15.7669L17.4086 14.8276ZM17.6869 14.5018C17.6812 14.6276 17.6739 14.6428 17.6664 14.6562C17.6632 14.6618 17.6244 14.7328 17.4086 14.8276L17.8212 15.7669C18.166 15.6155 18.414 15.4194 18.5602 15.1599C18.702 14.9083 18.7067 14.6604 18.7118 14.5483L17.6869 14.5018ZM17.6877 14.4846L17.6869 14.5015L18.7118 14.5485L18.7126 14.5316L17.6877 14.4846ZM19.2723 13.8148C19.076 13.6764 18.8694 13.5719 18.6545 13.541C18.4169 13.5069 18.1893 13.5672 18.0127 13.7197C17.8555 13.8553 17.781 14.0273 17.7439 14.1486C17.7052 14.2752 17.6918 14.3965 17.6877 14.4841L18.7125 14.532C18.7141 14.4991 18.719 14.4684 18.7249 14.449C18.7276 14.4404 18.7282 14.4412 18.7241 14.4486C18.7197 14.4561 18.7075 14.4752 18.683 14.4964C18.6567 14.5191 18.6225 14.5387 18.5834 14.5494C18.5454 14.5599 18.5178 14.5579 18.5086 14.5566C18.501 14.5555 18.5112 14.5557 18.5424 14.57C18.5733 14.5842 18.6191 14.6096 18.681 14.6533L19.2723 13.8148ZM19.7484 14.2124C19.5355 14.0295 19.3455 13.8651 19.2673 13.8114L18.686 14.6568C18.6843 14.6556 18.7131 14.6778 18.7952 14.7471C18.8675 14.8082 18.963 14.8902 19.08 14.9907L19.7484 14.2124ZM22.9449 16.7471C21.7784 15.955 20.4422 14.8082 19.7484 14.2124L19.08 14.9907C19.7651 15.5792 21.1456 16.7655 22.3686 17.5959L22.9449 16.7471ZM24.0654 17.4949C23.7154 17.2638 23.3371 17.0139 22.9453 16.7474L22.3682 17.5957C22.7667 17.8667 23.1506 18.1203 23.4999 18.351L24.0654 17.4949ZM24.0673 17.4962L24.0672 17.4961L23.4981 18.3498L23.4982 18.3499L24.0673 17.4962ZM24.0632 17.4935L24.0631 17.4934L23.5024 18.3526L23.5025 18.3527L24.0632 17.4935ZM24.0625 17.4931L24.0624 17.493L23.5033 18.3532L23.5034 18.3533L24.0625 17.4931ZM24.0646 17.4944L24.0643 17.4942L23.5017 18.3522L23.502 18.3524L24.0646 17.4944ZM24.074 17.5007L24.0739 17.5007L23.4927 18.3461L23.4927 18.3462L24.074 17.5007ZM24.8352 18.0073C24.6032 17.8501 24.3429 17.6782 24.0661 17.4954L23.5006 18.3515C23.7788 18.5352 24.0337 18.7036 24.2597 18.8567L24.8352 18.0073ZM18.3554 15.9305C18.4235 16.0963 18.5387 16.2265 18.6415 16.3196C18.7494 16.4172 18.8741 16.5013 19.0003 16.5682C19.1264 16.6351 19.2666 16.6916 19.4094 16.726C19.5457 16.7588 19.7207 16.7804 19.899 16.7403L19.6741 15.7393C19.7061 15.7321 19.7025 15.7413 19.6495 15.7285C19.6031 15.7174 19.5436 15.6951 19.4812 15.6619C19.4188 15.6289 19.3663 15.5917 19.33 15.5589C19.2886 15.5214 19.2927 15.5119 19.3045 15.5407L18.3554 15.9305ZM19.919 15.1489C19.6564 14.9086 19.2654 14.7359 18.8984 14.7965C18.693 14.8304 18.4498 14.9525 18.3322 15.2262C18.2254 15.4749 18.2757 15.7304 18.3533 15.9253L19.3066 15.5458C19.2773 15.4722 19.3206 15.5249 19.2749 15.6311C19.2507 15.6876 19.2104 15.7347 19.1638 15.7667C19.1204 15.7966 19.0829 15.8059 19.0654 15.8088C19.0362 15.8136 19.045 15.8048 19.092 15.8221C19.1336 15.8375 19.1826 15.8657 19.2264 15.9058L19.919 15.1489ZM19.8951 16.7412C20.046 16.7085 20.2605 16.6215 20.3837 16.3961C20.5057 16.1728 20.4632 15.9503 20.416 15.8179C20.327 15.5689 20.1176 15.3363 19.9249 15.1544L19.2205 15.9003C19.3007 15.976 19.3606 16.0413 19.4018 16.0938C19.4463 16.1506 19.4533 16.1729 19.4498 16.1629C19.4475 16.1566 19.4078 16.0423 19.4834 15.904C19.5199 15.8372 19.5692 15.7937 19.6099 15.7684C19.6477 15.7451 19.6751 15.739 19.678 15.7384L19.8951 16.7412ZM8.2551 21.1674C7.53257 20.9768 7.08638 20.7124 6.9016 20.5905L6.33659 21.4469C6.59407 21.6167 7.14176 21.9348 7.99337 22.1595L8.2551 21.1674ZM8.65025 22.8317L8.63719 21.6577L7.61128 21.6691L7.62434 22.8431L8.65025 22.8317ZM6.4953 21.8736C6.14847 22.2516 6.14856 22.2517 6.14865 22.2518C6.14868 22.2518 6.14877 22.2519 6.14884 22.2519C6.14897 22.252 6.14912 22.2522 6.14927 22.2523C6.14957 22.2526 6.14992 22.2529 6.1503 22.2533C6.15107 22.254 6.152 22.2548 6.1531 22.2558C6.15528 22.2578 6.1581 22.2603 6.16156 22.2634C6.16847 22.2695 6.1779 22.2779 6.18979 22.2881C6.21357 22.3087 6.24721 22.3371 6.29012 22.3717C6.37584 22.4408 6.49909 22.5351 6.65508 22.6413C6.96581 22.8527 7.41335 23.1158 7.95877 23.3183L8.31581 22.3565C7.86763 22.1901 7.49418 21.9713 7.23231 21.7931C7.10201 21.7044 7.00105 21.627 6.93415 21.573C6.90075 21.5461 6.87597 21.5251 6.8604 21.5117C6.85262 21.5049 6.84716 21.5001 6.84408 21.4974C6.84255 21.496 6.84161 21.4952 6.84128 21.4949C6.84111 21.4947 6.8411 21.4947 6.84124 21.4948C6.84131 21.4949 6.84142 21.495 6.84156 21.4951C6.84164 21.4952 6.84172 21.4953 6.84181 21.4953C6.84186 21.4954 6.84193 21.4955 6.84196 21.4955C6.84204 21.4956 6.84212 21.4956 6.4953 21.8736ZM6.1114 20.9452L5.9876 21.8001L7.00299 21.9471L7.12679 21.0922L6.1114 20.9452ZM9.41463 23.0431L9.3948 21.8091L8.36896 21.8256L8.38879 23.0595L9.41463 23.0431ZM9.65773 22.6101C9.43007 22.6101 9.20894 22.5871 8.99654 22.5472L8.80688 23.5555C9.07607 23.6061 9.36085 23.6361 9.65773 23.6361V22.6101ZM9.7331 22.6103L9.65901 22.6101L9.65645 23.6361L9.73054 23.6363L9.7331 22.6103ZM12.394 21.294C11.8542 21.9822 11.332 22.2999 10.8951 22.4539C10.4506 22.6106 10.06 22.6115 9.73371 22.6103L9.72994 23.6363C10.0647 23.6375 10.6111 23.6419 11.2362 23.4215C11.8691 23.1984 12.5491 22.7586 13.2013 21.9272L12.394 21.294ZM12.2627 20.7964C12.2504 21.0486 12.2566 21.265 12.2659 21.4195C12.2706 21.497 12.2761 21.5595 12.2806 21.6039C12.2829 21.6261 12.2849 21.6438 12.2864 21.6567C12.2872 21.6631 12.2878 21.6683 12.2883 21.6722C12.2886 21.6742 12.2888 21.6758 12.289 21.6771C12.2891 21.6778 12.2891 21.6784 12.2892 21.6789C12.2893 21.6791 12.2893 21.6794 12.2893 21.6796C12.2893 21.6797 12.2893 21.6798 12.2894 21.6799C12.2894 21.6799 12.2894 21.68 12.2894 21.68C12.2894 21.6801 12.2894 21.6801 12.7976 21.6106C13.3059 21.541 13.3059 21.5411 13.3059 21.5411C13.3059 21.5411 13.3059 21.5412 13.3059 21.5412C13.3059 21.5413 13.3059 21.5414 13.3059 21.5414C13.306 21.5416 13.306 21.5417 13.306 21.5418C13.306 21.542 13.306 21.5421 13.306 21.5421C13.306 21.5421 13.306 21.5419 13.3059 21.5413C13.3058 21.5402 13.3055 21.5379 13.3051 21.5344C13.3042 21.5275 13.3029 21.5159 13.3013 21.5001C13.2981 21.4684 13.2938 21.4199 13.29 21.3577C13.2824 21.2328 13.2773 21.0545 13.2875 20.8464L12.2627 20.7964ZM13.0807 21.2388L13.1291 21.1927L12.4212 20.4501L12.3728 20.4961L13.0807 21.2388ZM9.76658 22.4083C10.7387 22.4367 11.4437 22.2768 11.9809 22.028C12.5171 21.7798 12.852 21.4572 13.0811 21.2384L12.3725 20.4965C12.1515 20.7075 11.9205 20.9254 11.5499 21.097C11.1804 21.2681 10.6378 21.4073 9.79648 21.3828L9.76658 22.4083ZM8.80757 22.3249C9.10224 22.3681 9.42154 22.3977 9.76573 22.4083L9.79733 21.3828C9.4925 21.3734 9.21227 21.3473 8.95619 21.3098L8.80757 22.3249ZM6.8346 14.9692C6.63221 14.7209 6.53337 14.3179 6.51302 13.8291L5.48794 13.8717C5.51088 14.423 5.62193 15.1053 6.03932 15.6174L6.8346 14.9692ZM9.3364 15.1789C9.09619 15.4092 8.60585 15.6236 8.08571 15.6333C7.58644 15.6427 7.14348 15.466 6.87476 15.026L5.99915 15.5607C6.50575 16.3902 7.34384 16.6733 8.10486 16.6591C8.84502 16.6453 9.59423 16.353 10.0463 15.9196L9.3364 15.1789ZM10.1575 12.1625C10.1575 12.6003 10.13 13.1978 10.0046 13.7759C9.87693 14.3641 9.66178 14.8662 9.33586 15.1795L10.0469 15.9191C10.5875 15.3994 10.8619 14.6629 11.0072 13.9934C11.1547 13.3138 11.1835 12.6344 11.1835 12.1625H10.1575ZM8.83429 10.7907C9.7156 10.9714 10.1575 11.5447 10.1575 12.1625H11.1835C11.1835 10.9608 10.2973 10.0434 9.04037 9.78566L8.83429 10.7907ZM7.55927 10.8699C7.53297 10.8853 7.97265 10.6141 8.83429 10.7907L9.04037 9.78566C7.87901 9.54754 7.18214 9.9014 7.03917 9.98548L7.55927 10.8699ZM7.14673 11.164C7.24379 11.0404 7.36271 10.9572 7.49713 10.9009L7.10131 9.9544C6.82581 10.0696 6.55783 10.2527 6.33978 10.5304L7.14673 11.164ZM6.5133 13.8372C6.50885 13.664 6.543 13.1371 6.65225 12.5591C6.76524 11.9614 6.9374 11.4306 7.14673 11.164L6.33978 10.5304C5.9639 11.0091 5.75904 11.7606 5.64413 12.3686C5.52548 12.9963 5.48085 13.5984 5.48766 13.8636L6.5133 13.8372ZM7.50803 14.5306L7.69935 13.873L6.71422 13.5864L6.5229 14.244L7.50803 14.5306ZM8.86014 13.753C8.79524 14.0004 8.68801 14.0906 8.597 14.1356C8.48269 14.1921 8.3145 14.2137 8.09681 14.1887C7.88455 14.1643 7.67134 14.1008 7.50437 14.0388C7.42263 14.0084 7.35588 13.9799 7.31068 13.9596C7.28815 13.9494 7.2712 13.9414 7.26066 13.9363C7.2554 13.9338 7.25175 13.9319 7.24983 13.931C7.24887 13.9305 7.24834 13.9302 7.24826 13.9302C7.24822 13.9302 7.24829 13.9302 7.24847 13.9303C7.24856 13.9304 7.24868 13.9304 7.24883 13.9305C7.2489 13.9305 7.24904 13.9306 7.24907 13.9306C7.24921 13.9307 7.24936 13.9308 7.01547 14.3873C6.78158 14.8439 6.78174 14.844 6.78191 14.8441C6.78197 14.8441 6.78215 14.8442 6.78228 14.8443C6.78255 14.8444 6.78285 14.8445 6.78318 14.8447C6.78383 14.845 6.78461 14.8454 6.78551 14.8459C6.7873 14.8468 6.78957 14.8479 6.7923 14.8493C6.79777 14.852 6.80511 14.8556 6.8142 14.86C6.83237 14.8688 6.85763 14.8807 6.88912 14.8949C6.95192 14.9232 7.04036 14.9609 7.14731 15.0006C7.3577 15.0787 7.65586 15.1707 7.97957 15.208C8.29786 15.2446 8.69027 15.234 9.0518 15.0552C9.43662 14.8649 9.72049 14.5167 9.85253 14.0133L8.86014 13.753ZM8.30339 13.057C8.53231 13.1788 8.69032 13.2695 8.78943 13.3832C8.85484 13.4582 8.9071 13.5528 8.85701 13.7655L9.85566 14.0007C9.98285 13.4607 9.84156 13.0288 9.56286 12.7091C9.31786 12.428 8.98122 12.2555 8.78521 12.1512L8.30339 13.057ZM7.61167 12.1261C7.55512 12.4841 7.78377 12.7153 7.90669 12.8142C8.03148 12.9147 8.19441 12.9991 8.30339 13.057L8.78521 12.1512C8.72077 12.117 8.67051 12.0902 8.627 12.0648C8.58294 12.0392 8.56031 12.0233 8.55014 12.0151C8.53811 12.0054 8.5618 12.021 8.58673 12.0655C8.60044 12.0899 8.61454 12.1231 8.62262 12.1642C8.63083 12.2059 8.63118 12.2476 8.62508 12.2862L7.61167 12.1261ZM9.32257 12.1733C9.54716 11.7121 9.54705 11.712 9.54694 11.712C9.5469 11.7119 9.54678 11.7119 9.5467 11.7118C9.54653 11.7118 9.54634 11.7117 9.54613 11.7116C9.54572 11.7114 9.54524 11.7111 9.54469 11.7109C9.5436 11.7104 9.54223 11.7097 9.5406 11.7089C9.53734 11.7074 9.53302 11.7053 9.52771 11.7028C9.5171 11.6979 9.50248 11.6911 9.48437 11.683C9.44826 11.6669 9.3977 11.6451 9.33703 11.6211C9.21834 11.5743 9.04918 11.5144 8.86798 11.4748C8.70008 11.4381 8.45804 11.4038 8.22331 11.4633C8.09756 11.4951 7.95643 11.5584 7.83643 11.6784C7.71334 11.8015 7.64198 11.955 7.6133 12.1164L8.62345 12.2959C8.62009 12.3148 8.60536 12.3604 8.56197 12.4038C8.52167 12.4441 8.48332 12.4558 8.47522 12.4579C8.46932 12.4594 8.48099 12.4557 8.5171 12.4576C8.55158 12.4594 8.5959 12.4656 8.64893 12.4772C8.75612 12.5006 8.86902 12.5394 8.96029 12.5754C9.0046 12.5929 9.041 12.6086 9.0656 12.6196C9.07785 12.6251 9.08701 12.6293 9.09261 12.632C9.0954 12.6333 9.09729 12.6342 9.09821 12.6346C9.09867 12.6348 9.09889 12.6349 9.09885 12.6349C9.09883 12.6349 9.09875 12.6349 9.09861 12.6348C9.09854 12.6348 9.09845 12.6347 9.09835 12.6347C9.09829 12.6346 9.0982 12.6346 9.09818 12.6346C9.09808 12.6345 9.09799 12.6345 9.32257 12.1733ZM9.08643 11.3011L8.83884 12.0025L9.80631 12.344L10.0539 11.6426L9.08643 11.3011ZM7.93917 12.1616C8.02019 11.8542 8.12508 11.7841 8.22666 11.7539C8.39531 11.7037 8.7384 11.7142 9.39418 11.9537L9.74616 10.99C9.05144 10.7362 8.43792 10.6206 7.93413 10.7705C7.36327 10.9403 7.07989 11.3963 6.94709 11.9L7.93917 12.1616ZM8.38502 12.8185C8.17447 12.7298 8.04402 12.6568 7.97173 12.5704C7.94298 12.536 7.92384 12.4992 7.91438 12.4495C7.90434 12.3966 7.90107 12.3061 7.93916 12.1616L6.94709 11.9C6.80414 12.4423 6.9025 12.891 7.18462 13.2285C7.43308 13.5256 7.78093 13.6773 7.98679 13.764L8.38502 12.8185ZM8.59561 14.4669C8.76861 14.3954 8.94114 14.2705 9.04087 14.07C9.14308 13.8644 9.13357 13.6501 9.07202 13.4755C8.958 13.1522 8.6656 12.9292 8.37429 12.8141L7.99751 13.7684C8.05056 13.7894 8.08572 13.8135 8.10478 13.8306C8.12615 13.8498 8.11587 13.8491 8.10445 13.8167C8.09073 13.7778 8.07981 13.6984 8.12223 13.6131C8.16218 13.5328 8.21654 13.5134 8.20385 13.5186L8.59561 14.4669ZM7.20679 13.7297C6.97226 14.1859 6.97234 14.186 6.97243 14.186C6.97246 14.186 6.97254 14.1861 6.97261 14.1861C6.97273 14.1862 6.97287 14.1862 6.97302 14.1863C6.97333 14.1865 6.97368 14.1867 6.97409 14.1869C6.9749 14.1873 6.9759 14.1878 6.97711 14.1884C6.97951 14.1896 6.98269 14.1912 6.98662 14.1932C6.99447 14.1971 7.0053 14.2025 7.0188 14.209C7.04577 14.2221 7.08365 14.24 7.12993 14.2607C7.2217 14.3017 7.35036 14.3555 7.49497 14.4046C7.63727 14.4528 7.8088 14.5013 7.98348 14.5248C8.14748 14.5469 8.37408 14.5557 8.5907 14.4689L8.20876 13.5166C8.23406 13.5065 8.21588 13.5208 8.12033 13.508C8.03546 13.4966 7.93267 13.4697 7.82457 13.433C7.71877 13.3971 7.62094 13.3564 7.54882 13.3241C7.51316 13.3081 7.48474 13.2947 7.4659 13.2856C7.4565 13.281 7.44955 13.2776 7.44534 13.2755C7.44324 13.2744 7.44183 13.2737 7.44114 13.2734C7.4408 13.2732 7.44064 13.2731 7.44066 13.2731C7.44068 13.2731 7.44074 13.2732 7.44085 13.2732C7.4409 13.2732 7.44096 13.2733 7.44104 13.2733C7.44108 13.2733 7.44115 13.2734 7.44117 13.2734C7.44124 13.2734 7.44131 13.2735 7.20679 13.7297Z" fill="white" mask="url(#path-1-outside-1_36_14510)"/>
<path fill-rule="evenodd" clip-rule="evenodd" d="M23.422 16.8208C23.2656 16.7193 23.1093 16.6112 22.9582 16.5067L22.8255 16.4152C21.5876 15.5712 20.1245 14.1135 19.8431 13.8285C19.6969 12.9955 19.438 11.9871 18.6165 10.8253C17.975 9.72921 16.8158 9.09349 16.118 8.79755C15.5216 7.3069 12.5729 7.08769 11.4363 7.01096C11.3013 7 11.1662 7 11.0311 7C8.78031 7 8.31889 8.50161 8.22886 9.12637C7.66615 9.15925 7.18222 9.29078 6.76581 9.52095C5.47158 10.2553 5.11145 11.735 5.03267 12.842C4.96515 13.8724 5.02142 14.2779 5.03267 14.3546C5.12271 15.1876 5.35904 15.8124 6.24812 16.4919C5.74057 18.7259 5.51237 21.2814 5.4534 21.9417C5.44438 22.0428 5.43932 22.0994 5.43782 22.1038L5.42657 22.1805L5.47158 22.2463C5.5166 22.312 6.72079 23.8356 9.36554 23.989C9.47808 24 9.60185 24 9.71439 24C12.5624 24 13.6318 21.8851 13.7069 21.7366L13.7097 21.7311L13.7547 21.6434L13.7209 21.5557C13.7209 21.5557 13.462 20.8652 13.8559 19.5938C14.1823 18.5416 15.3415 18.3552 15.6454 18.3333C16.2823 18.5993 17.6263 19.3652 18.9299 20.108C20.2023 20.8331 21.4361 21.5362 21.9364 21.7311C22.4429 21.9284 22.9268 22.038 23.3545 22.038C23.8609 22.038 24.2435 21.8846 24.4236 21.6215C24.7275 21.1502 24.6712 20.7008 24.2548 20.2953C24.3212 20.3082 24.3954 20.3173 24.4751 20.3271L24.4751 20.3271C24.5306 20.334 24.5887 20.3411 24.6487 20.3501C24.7837 20.372 24.9638 20.383 25.1326 20.383C25.7516 20.383 26.1005 20.098 26.1905 19.5061C26.2918 18.7937 25.1664 17.9716 23.422 16.8208ZM19.7081 13.938C19.7081 13.938 21.3624 15.6479 22.7692 16.6015C22.9625 16.7327 23.1627 16.8661 23.3645 17.0006C24.7133 17.8998 26.1337 18.8467 26.0554 19.4951C25.9429 20.2185 25.4252 20.2185 24.7724 20.1417C24.1491 20.0677 23.9211 19.9937 23.6932 19.9196C23.5836 19.8841 23.4741 19.8485 23.3206 19.8129C23.3206 19.8129 23.5682 19.9773 23.9847 20.2842C24.6262 20.7665 24.5361 21.183 24.3223 21.5118C24.1085 21.8406 23.2869 21.9941 22.1164 21.5337C21.1261 21.1501 17.1534 19.1333 15.8141 18.114C15.8141 18.114 14.1598 18.1688 13.7321 19.5389C13.3045 20.909 13.5971 21.6433 13.5971 21.6433C13.5971 21.6433 12.5166 23.956 9.47804 23.7807C6.90082 23.6272 5.7529 22.1256 5.7529 22.1256C5.7529 22.1256 5.96327 19.0416 6.58167 16.4245C5.66771 15.7551 5.43204 15.181 5.33651 14.3437C5.33651 14.3437 5.25773 13.982 5.32526 12.8749C5.40403 11.6583 5.82044 10.3649 6.94586 9.72923C7.44055 9.44979 8.00265 9.35883 8.51268 9.35675C8.53788 8.92491 8.80248 7.04687 11.5038 7.24103C12.618 7.31776 15.5665 7.54793 16.0167 8.97282C16.6244 9.22491 17.8511 9.83871 18.5039 10.9567C19.3142 12.0966 19.5618 13.0611 19.7081 13.938ZM9.23276 9.40915C9.5603 9.4571 9.82141 9.52768 9.96197 9.57578L9.99624 9.58648C10.1262 9.41123 10.272 9.24263 10.4334 9.09557C11.5953 8.03704 14.3346 8.2995 14.3346 8.2995C13.4821 8.10626 12.6045 7.94472 12.1012 7.91006C10.1479 7.76967 9.46866 8.71282 9.23276 9.40915ZM10.5368 16.2874C10.7917 16.0385 10.9919 15.7493 11.1324 15.4507C11.3404 15.0087 11.6295 14.2436 11.7627 13.398C12.2186 13.5339 12.7082 13.7754 13.1433 14.1855C14.1899 15.172 14.37 15.9612 14.0774 16.6626C13.7848 17.3641 13.2446 17.8902 12.1642 17.3312C11.5717 17.0247 10.9927 16.6785 10.5368 16.2874ZM14.6561 10.052C14.3768 10.1096 14.2664 10.2793 14.3086 10.4106C14.4125 10.7339 14.9159 10.7691 15.0782 10.7339C15.2406 10.6987 15.5231 10.5706 15.3737 10.3113C15.2243 10.052 14.9353 9.99436 14.6561 10.052ZM16.0503 12.7461C15.9984 12.4151 15.8238 12.1657 15.5749 12.1189C15.3798 12.0823 15.1781 12.1773 15.014 12.3586C15.0934 12.3801 15.1638 12.4424 15.2089 12.5596C15.2836 12.7541 15.1423 12.8502 15.0611 12.8766C15.003 12.8955 14.8572 12.8873 14.7602 12.7918C14.7339 12.8639 14.7122 12.94 14.696 13.0192C14.5801 13.5859 14.7857 14.1017 15.1551 14.1711C15.2133 14.1821 15.272 14.1813 15.3301 14.17C15.0974 14.3271 14.8312 14.3966 14.5678 14.3471C13.9371 14.2285 13.5609 13.4723 13.7274 12.6581C13.894 11.8439 14.5402 11.28 15.1709 11.3986C15.7121 11.5004 16.066 12.0716 16.0503 12.7461ZM24.4519 18.4019C24.4823 18.4102 24.5142 18.4202 24.5475 18.432C24.3185 18.2769 24.0608 18.1067 23.7834 17.9234L23.7833 17.9234L23.783 17.9232L23.7829 17.9231L23.7827 17.923L23.7826 17.9229C23.433 17.692 23.0519 17.4403 22.6568 17.1715C21.462 16.3603 20.1036 15.1937 19.4142 14.6016C19.1815 14.4017 19.025 14.2673 18.9767 14.2341C18.3239 13.7737 18.2114 14.267 18.2001 14.5081L18.1993 14.525C18.1885 14.763 18.1755 15.0511 17.6149 15.2973C17.0409 15.5494 16.1648 15.5657 15.7709 15.5109C15.377 15.4561 14.9624 16.0959 14.9511 16.6297C14.9369 17.2948 15.5867 17.609 16.1601 17.878C16.1837 17.8891 16.3035 17.9572 16.4968 18.067L16.4974 18.0674L16.4974 18.0674L16.4975 18.0674L16.4975 18.0674C17.7195 18.762 21.8761 21.1245 23.321 21.3554C23.6993 21.4159 24.0318 21.0312 23.786 20.9096C22.6357 20.3404 21.1652 19.5396 20.1591 18.8588C18.6436 17.8335 16.9907 16.586 17.0901 16.6297C19.4084 17.6492 23.556 19.3905 24.4799 19.5719C24.5024 19.5774 24.5221 19.5801 24.5418 19.5829L24.5418 19.5829L24.5419 19.5829L24.5419 19.5829L24.5419 19.5829C24.5531 19.5844 24.5642 19.586 24.5759 19.588C24.6653 19.4977 24.7797 19.3048 24.5814 19.1225C24.543 19.0851 24.5028 19.0468 24.4624 19.0084L24.4623 19.0083L24.4622 19.0082L24.4621 19.0081C24.3923 18.9417 24.3219 18.8746 24.2589 18.8103C24.1918 18.7432 24.134 18.6791 24.095 18.6214C24.0388 18.5415 24.0163 18.4749 24.0524 18.4319C24.112 18.3643 24.2503 18.3392 24.4519 18.4019ZM18.83 15.7356C18.9425 16.0096 19.4939 16.3055 19.7865 16.2398C20.0904 16.174 19.9441 15.8781 19.5727 15.5273C19.2014 15.1876 18.6161 15.1985 18.83 15.7356ZM8.12423 21.6634C7.33716 21.4558 6.84022 21.1646 6.61909 21.0187L6.49529 21.8736C6.49529 21.8736 7.14369 22.4686 8.13729 22.8374L8.12423 21.6634ZM8.90171 23.0513L8.88188 21.8173C9.15725 21.8577 9.45702 21.8855 9.78152 21.8955C11.5949 21.9484 12.2768 21.2972 12.7268 20.8674L12.7751 20.8214C12.7526 21.2817 12.7976 21.6106 12.7976 21.6106C11.6057 23.1302 10.3929 23.1257 9.73182 23.1233L9.65772 23.1231C9.39546 23.1231 9.1425 23.0966 8.90171 23.0513ZM6.43695 15.2933C6.12706 14.9131 6.02212 14.3705 6.00048 13.8504C5.98922 13.412 6.15804 11.5925 6.74325 10.8472C6.90081 10.6465 7.09425 10.5134 7.29921 10.4277C7.35755 10.3934 7.92582 10.0808 8.93733 10.2882C10.0065 10.5074 10.6705 11.2527 10.6705 12.1624C10.6705 13.0722 10.5579 14.7163 9.69136 15.5493C8.99905 16.2128 7.21227 16.5629 6.43695 15.2933ZM7.01546 14.3873L7.20678 13.7297C7.20678 13.7297 8.01708 14.1462 8.39972 13.9927C8.77111 13.8393 8.6023 13.4557 8.1859 13.2913C7.76949 13.1159 7.22929 12.8419 7.44312 12.0308C7.65695 11.2197 8.21966 10.9786 9.57017 11.4718L9.32257 12.1733C9.32257 12.1733 8.21966 11.6362 8.11837 12.2061C8.09339 12.3643 8.29481 12.4714 8.54429 12.6041C8.96923 12.8302 9.53361 13.1304 9.35633 13.8831C8.96244 15.3847 7.01546 14.3873 7.01546 14.3873Z" fill="white"/>
</svg>
