<?xml version="1.0" encoding="UTF-8" standalone="no"?>
<!-- Generator: Adobe Illustrator 19.2.1, SVG Export Plug-In . SVG Version: 6.00 Build 0)  -->

<svg
   xmlns:dc="http://purl.org/dc/elements/1.1/"
   xmlns:cc="http://creativecommons.org/ns#"
   xmlns:rdf="http://www.w3.org/1999/02/22-rdf-syntax-ns#"
   xmlns:svg="http://www.w3.org/2000/svg"
   xmlns="http://www.w3.org/2000/svg"
   xmlns:sodipodi="http://sodipodi.sourceforge.net/DTD/sodipodi-0.dtd"
   xmlns:inkscape="http://www.inkscape.org/namespaces/inkscape"
   version="1.1"
   id="layer"
   x="0px"
   y="0px"
   viewBox="0 0 134.92215 47.99997"
   xml:space="preserve"
   sodipodi:docname="the-atlantic-logo-vector.svg"
   width="134.92215"
   height="47.999969"
   inkscape:version="0.92.4 (5da689c313, 2019-01-14)"><metadata
   id="metadata13"><rdf:RDF><cc:Work
       rdf:about=""><dc:format>image/svg+xml</dc:format><dc:type
         rdf:resource="http://purl.org/dc/dcmitype/StillImage" /><dc:title></dc:title></cc:Work></rdf:RDF></metadata><defs
   id="defs11" /><sodipodi:namedview
   pagecolor="#ffffff"
   bordercolor="#666666"
   borderopacity="1"
   objecttolerance="10"
   gridtolerance="10"
   guidetolerance="10"
   inkscape:pageopacity="0"
   inkscape:pageshadow="2"
   inkscape:window-width="1858"
   inkscape:window-height="1057"
   id="namedview9"
   showgrid="false"
   fit-margin-top="0"
   fit-margin-left="0"
   fit-margin-right="0"
   fit-margin-bottom="0"
   inkscape:zoom="1.0237865"
   inkscape:cx="493.53646"
   inkscape:cy="-11.010523"
   inkscape:window-x="1912"
   inkscape:window-y="-8"
   inkscape:window-maximized="1"
   inkscape:current-layer="layer"
   scale-x="0.8" />
<style
   type="text/css"
   id="style2">
	.st0{fill:#E7131A;}
</style>
<path
   class="st0"
   d="m 8.7796106,34.083356 c -0.1938514,0 -0.2630834,-0.13847 -0.2630834,-0.33231 l 4.6801018,-20.02198 c 0.06923,-0.33232 0.332315,-0.33232 0.401547,0 l 4.347789,20.02198 c 0,0.19384 -0.06923,0.33231 -0.263084,0.33231 z M 17.281335,0.06260638 c -0.775402,0.78925 -1.716961,1.39850002 -2.741598,1.81389002 -0.263083,0.0692 -0.332315,0.13846 -0.401547,0.40155 L 4.5564411,42.585076 c -0.7200163,3.22623 -1.6754214,3.82163 -4.22316941,4.01548 -0.18000495,-0.0138 -0.31846895,0.12462 -0.33231535423,0.29077 0,0.0138 0,0.0277 0,0.0415 v 0.73386 c -0.0138481458,0.18001 0.12461760423,0.31847 0.29077615423,0.33232 0.0138482,0 0.0276928,0 0.0276928,0 H 9.4857805 c 0.1800032,0.0139 0.3184672,-0.12462 0.3323136,-0.29078 0,-0.0138 0,-0.0277 0,-0.0415 v -0.7477 c 0.013848,-0.18001 -0.1246176,-0.31847 -0.2907744,-0.33232 -0.013848,0 -0.027693,0 -0.041539,0 -3.4200766,0 -3.7523902,-1.01079 -3.0877612,-3.82162 l 1.6061894,-6.89554 c 0.041539,-0.19385 0.2076977,-0.33231 0.4015473,-0.33231 h 9.5817478 c 0.19385,0 0.360008,0.13846 0.401547,0.33231 l 1.786193,8.30788 c 0.401547,1.78619 -0.263082,2.21543 -2.547748,2.40928 -0.180003,-0.0138 -0.318469,0.12462 -0.332315,0.29078 0,0.0138 0,0.0277 0,0.0415 v 0.7339 c -0.01385,0.18 0.124619,0.31847 0.290776,0.33231 0.01385,0 0.02769,0 0.04154,0 h 13.472605 c 0.180003,0.0138 0.318467,-0.12461 0.332313,-0.29077 0,-0.0138 0,-0.0277 0,-0.0415 v -0.73386 c 0.01385,-0.18001 -0.124617,-0.31847 -0.290774,-0.33232 -0.01385,0 -0.02769,0 -0.04154,0 -2.076969,-0.19385 -2.949297,-0.54001 -3.350845,-2.40928 L 17.682881,0.20107638 c -0.06923,-0.19385 -0.263081,-0.26309 -0.401546,-0.13847"
   id="path4"
   inkscape:connector-curvature="0"
   style="fill:#e7131a;stroke-width:0.13846457" />
<path
   d="m 56.04264,23.421746 c -1.082705,0 -2.008243,0.82076 -3.1608,2.40989 -0.541353,0.73344 -1.222409,1.79868 -1.51928,2.25272 -0.17463,0.22702 -0.314334,0.1921 -0.209556,-0.0524 l 0.803297,-2.06063 2.881393,-7.91073 c 0.139704,-0.3318 -1.012853,-0.71598 -1.222409,-0.3318 v 0.0349 c -0.488964,1.04778 -1.414502,1.39704 -3.056022,1.32719 -1.641521,-0.0524 -4.942025,-0.96047 -7.439231,-0.96047 -3.125875,0 -4.872173,1.92093 -4.872173,4.19112 0,1.2748 0.838223,2.09556 1.955854,2.06063 0.52389,0.0349 0.977927,-0.31433 1.082705,-0.82076 0.06985,-0.29687 -0.104778,-0.59374 -0.384185,-0.66359 -0.104778,-0.0349 -0.209556,-0.0175 -0.314334,0.0175 -1.100168,0.22702 -1.484354,-0.54135 -1.484354,-1.11763 0,-1.4145 1.204946,-2.46228 3.719616,-2.46228 0.64613,0 1.903465,0.15716 3.248115,0.29687 -1.69391,5.09919 -3.405282,9.83166 -3.824394,10.94929 -0.08731,0.31433 -0.314333,0.55881 -0.611204,0.64613 -0.611205,0.19209 -0.803297,0.20956 -1.187483,0.29687 -0.576278,0.1397 -0.471501,0.6112 -0.06985,0.59374 0.715982,-0.0349 1.658984,-0.1397 2.392429,-0.1397 0.908075,0 2.532133,0.0699 2.776614,0.0873 0.454038,0.0349 0.506427,-0.50642 0.139704,-0.57628 -0.261945,-0.0349 -0.698519,-0.10477 -1.117631,-0.17463 -0.488963,-0.0524 -0.64613,-0.26194 -0.541352,-0.66359 0.244481,-0.66359 3.1608,-9.08075 3.737078,-10.84451 0.908075,0.10478 1.676447,0.19209 2.182873,0.22702 1.047779,0.0699 2.060632,0 2.933782,-0.62867 l -2.305114,6.51369 -2.025706,5.57069 c -0.34926,0.90808 0.943001,0.97793 1.239871,0.41912 0.977928,-1.95586 2.130484,-3.8244 3.440208,-5.58816 0.838224,-1.22241 1.624058,-1.95585 2.16541,-1.95585 0.419112,0 0.663594,0.22702 0.663594,0.75091 0,0.68105 -0.314334,1.74629 -0.977927,3.56244 -0.855687,2.35751 -1.187483,2.98617 -1.466891,3.00364 -0.279408,0.0175 -0.838223,-0.68106 -1.135094,-0.76837 -0.296871,-0.0873 -0.611204,0.0524 -0.750908,0.33179 -0.157167,0.26195 -0.05239,1.11763 1.239872,1.18749 1.536742,0.0699 2.863929,-1.50182 3.772004,-4.03395 0.628668,-1.71138 0.785834,-2.60199 0.785834,-3.21319 0.01746,-1.20495 -0.558815,-1.76376 -1.484353,-1.76376 z m 26.15955,8.17267 c -0.977927,-0.22702 -1.362113,-0.59374 -1.362113,-0.97792 l 0.03493,-0.8033 c 0,-0.59374 0.454038,-9.25538 0.558816,-10.54764 0.06985,-0.96047 -1.012854,-0.90808 -1.466891,-0.34926 l -0.908075,1.15255 c -1.117631,1.39704 -5.588155,7.15983 -7.753565,9.86659 -0.611205,0.75091 -1.414502,1.30972 -2.34004,1.62406 -0.366723,0.0873 -0.331797,0.4715 0.06985,0.4715 0.314334,0 1.274798,-0.10478 1.973317,-0.10478 0.698519,0 2.008243,0.0524 2.322577,0.0698 0.331797,0.0175 0.454038,-0.34926 0,-0.45404 -0.908075,-0.26194 -1.362113,-0.45403 -1.362113,-0.68105 0,-0.22702 0.209556,-0.55882 0.69852,-1.23987 0.384185,-0.54136 1.29226,-1.72884 2.305113,-3.07349 h 4.348283 c -0.08731,1.83361 -0.209555,3.75454 -0.227018,4.13873 0,0.24448 -0.17463,0.4715 -0.419112,0.50642 l -0.977927,0.27941 c -0.261945,0.0698 -0.384186,0.57628 0.03493,0.55882 0.960464,-0.0524 1.746298,-0.13971 2.16541,-0.13971 0.628667,0 1.693909,0.13971 2.182873,0.15717 0.558815,0.0349 0.488963,-0.36672 0.122241,-0.45404 z m -2.706763,-7.00265 c 0,0.34926 -0.03493,0.71598 -0.05239,1.11763 h -3.719615 c 1.728835,-2.28765 3.562448,-4.69755 3.719615,-4.92456 0.157167,-0.22702 0.296871,-0.10478 0.279408,0.0524 -0.06985,0.87315 -0.17463,2.4099 -0.227019,3.75455 z m -16.362816,-1.04778 c -1.658983,-0.0699 -3.51006,1.85107 -4.383209,4.74993 -0.855686,2.79408 0.08731,3.9641 1.135094,3.9641 0.768372,0 2.043169,-0.99539 2.741689,-2.13049 0.244481,-0.40165 0.05239,-0.82076 -0.314334,-0.40165 -0.471501,0.50643 -1.117631,1.06525 -1.798687,0.943 -0.454038,-0.0699 -0.87315,-0.85568 -0.209556,-2.79407 1.606594,-0.0699 3.475134,-0.99539 3.964097,-2.49721 0.401649,-1.32719 -0.454037,-1.81615 -1.135094,-1.83361 z m 0.17463,1.4145 c -0.401649,1.18748 -1.798687,2.16541 -2.81154,2.40989 0.977927,-2.56706 1.903465,-3.26558 2.497206,-3.24811 0.314334,0.0175 0.454038,0.38418 0.314334,0.83822 z m 24.360863,-0.45404 h 1.536742 c 0.34926,0 0.506427,-0.0873 0.593742,-0.34926 0.139704,-0.3318 0.05239,-0.4715 -0.279408,-0.4715 h -1.536742 l 0.750908,-1.97332 c 0.08732,-0.26194 0,-0.40165 -0.157167,-0.40165 h -0.803297 c -0.209556,0 -0.279408,0.0524 -0.384186,0.3318 l -0.803297,2.06063 H 85.36299 c -0.17463,0 -0.314334,-0.0349 -0.419112,0.4715 -0.03493,0.24449 0,0.34926 0.244482,0.34926 h 1.082705 l -1.851076,4.81979 c -0.296871,0.69852 -0.541353,1.39704 -0.768372,2.11302 -0.104777,0.66359 0.296871,0.943 0.785835,0.83822 0.977927,-0.17463 2.357503,-1.18748 3.614837,-2.75915 0.34926,-0.45404 0.05239,-0.73345 -0.279407,-0.38419 -0.52389,0.50643 -1.065242,0.99539 -1.658984,1.43197 -0.488963,0.3318 -0.733445,0.0873 -0.576278,-0.38419 z m 17.183576,-0.45404 c 0.10478,-0.26194 -0.26194,-0.34926 -1.13509,-0.50642 -0.26195,-0.0524 -0.41912,0.22702 -0.87315,1.18748 -0.38419,-0.4715 -0.97793,-0.71598 -1.58913,-0.64613 -1.397043,0.0349 -3.108416,1.29226 -4.522917,3.21319 -1.117631,1.53674 -1.466891,2.61945 -1.257335,3.75454 0.122241,0.66359 0.715982,1.15256 1.397038,1.13509 1.047779,0.0349 2.095559,-0.96046 3.160804,-2.04317 l 0.66359,-0.66359 c 0.19209,-0.19209 0.36672,-0.0698 0.24448,0.15717 -0.34926,0.59374 -0.62867,1.22241 -0.85568,1.886 -0.139708,0.66359 0.22701,0.83822 0.73344,0.76837 0.99539,-0.1397 2.53213,-1.04778 3.71962,-2.6893 0.33179,-0.4715 0,-0.75091 -0.31434,-0.38418 -0.52389,0.54135 -1.0827,1.04778 -1.69391,1.48435 -0.50642,0.34926 -0.75091,0.24448 -0.59374,-0.15717 0.10478,-0.24448 0.38419,-0.943 2.91632,-6.49623 z m -4.40067,4.97695 c -1.204948,1.10017 -2.165412,1.90347 -2.846468,1.90347 -0.454038,0 -0.663594,-0.19209 -0.69852,-0.50643 -0.104778,-0.83822 0.646131,-2.11302 1.274798,-2.9687 1.082705,-1.43197 2.42736,-2.61945 3.28304,-2.61945 0.59374,0 0.90808,0.24448 0.96047,0.6112 0.10477,0.6636 -0.99539,2.67184 -1.95586,3.56245 z m 26.47388,-5.74532 c -0.943,0 -2.18287,0.6636 -3.37035,1.97332 -0.38419,0.45404 -0.0873,0.75091 0.26194,0.41911 0.40165,-0.36672 0.83822,-0.69852 1.29226,-0.99539 0.40165,-0.24448 0.6636,-0.0524 0.55882,0.29687 -0.0873,0.29687 -0.38419,0.99539 -0.59374,1.46689 l -1.29227,2.96871 c -0.36672,0.83822 -0.69851,1.67645 -0.78583,1.90346 -0.17463,0.59375 0.1397,0.90808 0.6112,0.90808 0.90808,0 2.14795,-0.75091 3.3529,-2.0781 0.38418,-0.45403 0.0873,-0.73344 -0.26195,-0.41911 -0.43657,0.40165 -0.90807,0.75091 -1.4145,1.08271 -0.40165,0.24448 -0.68105,0.0524 -0.55881,-0.31434 0.0873,-0.26194 0.38418,-0.87314 0.57627,-1.30972 l 1.30973,-2.96871 c 0.38418,-0.87315 0.82076,-1.79868 0.90807,-2.06063 0.13971,-0.55881 -0.1397,-0.87315 -0.59374,-0.87315 z m 1.1351,-4.61023 c -0.57628,-0.0349 -1.08271,0.38419 -1.1351,0.97793 -0.0873,0.50643 0.24448,1.01285 0.76837,1.10017 0.0175,0 0.0524,0 0.0699,0.0175 0.55881,0.0175 1.04777,-0.40165 1.11763,-0.96046 0.10477,-0.50643 -0.22702,-1.01285 -0.73345,-1.11763 -0.0175,-0.0175 -0.0524,-0.0175 -0.0873,-0.0175 z m 5.29128,4.88964 c -1.67645,-0.0699 -3.47513,1.86854 -4.34828,4.73247 -0.87315,2.86393 0.0699,3.9641 1.18748,3.9641 0.76837,0 2.04317,-0.90808 2.79408,-2.13049 0.24448,-0.40165 0.0524,-0.82076 -0.3318,-0.40165 -0.4715,0.50643 -1.0827,0.99539 -1.71137,0.96047 -0.62867,-0.0349 -1.06524,-0.90808 -0.34926,-2.98617 1.06524,-3.00364 1.79869,-3.3529 2.13048,-3.37036 0.3318,-0.0175 0.99539,0.83822 1.39704,0.943 0.29687,0.0873 0.61121,-0.0524 0.73345,-0.31433 0.19209,-0.36672 0.0699,-1.30973 -1.50182,-1.39704 z m -10.82705,0.1397 h -1.53674 l 0.73344,-1.97331 c 0.10478,-0.26195 0,-0.40165 -0.15716,-0.40165 h -0.8033 c -0.20956,0 -0.27941,0.0524 -0.38419,0.33179 l -0.78583,2.06064 h -1.22241 c -0.17463,0 -0.29687,-0.0349 -0.41911,0.4715 -0.0349,0.24448 0.0175,0.34926 0.24448,0.34926 h 1.0827 l -1.85107,4.81978 c -0.29687,0.68106 -0.54135,1.39704 -0.76837,2.11302 -0.12224,0.66359 0.27941,0.943 0.78583,0.83822 0.97793,-0.17463 2.3575,-1.18748 3.61484,-2.75915 0.34926,-0.45403 0.0524,-0.73344 -0.29687,-0.38418 -0.52389,0.50642 -1.08271,0.99539 -1.65898,1.43196 -0.48897,0.3318 -0.75091,0.0873 -0.57628,-0.38418 l 2.13048,-5.69294 h 1.53674 c 0.34926,0 0.50643,-0.0873 0.59374,-0.34926 0.15717,-0.31433 0.0699,-0.4715 -0.26194,-0.4715 z m -28.744072,5.3786 c -0.541352,0.54136 -1.117631,1.04778 -1.711372,1.50182 -0.488964,0.3318 -0.733446,0.0873 -0.576279,-0.38419 l 4.645154,-12.3114 c 0.06985,-0.19209 0.03493,-0.45404 -0.227019,-0.45404 -0.908075,0.0524 -1.81615,0.15717 -2.706762,0.31434 -0.157167,0.0349 -0.227019,0.26194 -0.05239,0.31433 l 1.030316,0.38419 c 0.209556,0.0699 0.227019,0.17463 0.08732,0.50642 l -3.999024,10.37301 c -0.29687,0.68106 -0.541352,1.39704 -0.768371,2.11303 -0.104778,0.66359 0.279408,0.943 0.785834,0.83822 1.030316,-0.17463 2.497207,-1.18748 3.772005,-2.84647 0.34926,-0.43657 0.06985,-0.71598 -0.279408,-0.34926 z m 19.610932,0.0349 1.11763,-2.25273 c 0.6112,-1.23987 0.73345,-1.79868 0.73345,-2.23526 0,-0.82076 -0.41912,-1.23987 -1.2748,-1.23987 -1.20495,0 -2.14795,0.96046 -3.61484,3.00363 -0.40165,0.55882 -0.66359,0.97793 -1.20495,1.65899 -0.17463,0.20955 -0.29687,0.19209 -0.20955,-0.0524 l 0.73344,-1.85108 c 0.29687,-0.64613 0.50643,-1.32719 0.61121,-2.0257 0,-0.48897 -0.20956,-0.71599 -0.73345,-0.71599 -0.64613,0 -1.46689,0.34926 -2.89885,2.14795 -0.50643,0.66359 0,0.73345 0.17463,0.54135 0.27941,-0.29687 0.90807,-0.943 1.30972,-1.29226 0.40165,-0.34926 0.78584,-0.24448 0.62867,0.19209 -0.10478,0.34926 -0.22702,0.68106 -0.36672,1.01286 l -2.25273,5.53576 c -0.31433,0.76837 1.13509,0.943 1.39704,0.36673 0.78583,-1.79869 2.49721,-4.06888 3.19573,-5.06427 1.03031,-1.46689 1.92092,-2.47974 2.56705,-2.47974 0.34926,0 0.48897,0.19209 0.48897,0.55881 -0.0349,0.31434 -0.12224,0.62867 -0.26195,0.90808 l -1.60659,3.40528 c -0.45404,0.90807 -0.87315,1.86854 -0.96047,2.11302 -0.19209,0.59374 0.13971,0.90808 0.64613,0.90808 0.90808,0 2.14795,-0.75091 3.3529,-2.0781 0.38418,-0.45404 0.0873,-0.73344 -0.26195,-0.41911 -0.43657,0.40165 -0.90807,0.75091 -1.4145,1.0827 -0.41911,0.26195 -0.69852,0.0524 -0.57628,-0.33179 0.13971,-0.27941 0.4715,-0.97793 0.68106,-1.39704 z"
   id="path6"
   inkscape:connector-curvature="0"
   style="stroke-width:0.17462984" />
</svg>