<svg width="31" height="31" viewBox="0 0 31 31" fill="none" xmlns="http://www.w3.org/2000/svg">
<path fill-rule="evenodd" clip-rule="evenodd" d="M15.0109 30.0134C23.3011 30.0134 30.0217 23.2946 30.0217 15.0067C30.0217 6.71881 23.3011 0 15.0109 0C6.72067 0 0 6.71851 0 15.0067C0 23.2949 6.72067 30.0134 15.0109 30.0134ZM18.0914 8.82395C18.7636 8.36234 19.3283 8.12944 20.0857 7.99048C20.6592 7.88753 22.1605 8.01299 22.7793 8.21468C23.6799 8.51031 24.2759 8.80594 24.9439 9.28976C26.1987 10.2062 27.1118 11.5149 27.5386 13.0087C27.8479 14.0973 27.8479 15.5133 27.5341 16.6962C27.2384 17.8067 26.4453 19.1693 25.5758 20.0475C24.8586 20.7678 23.7874 21.432 22.842 21.7321C21.8213 22.0593 20.9372 22.1577 19.99 22.0458C19.2908 21.965 19.116 21.9293 18.5021 21.7321C17.6552 21.462 16.2433 20.6345 16.3375 20.4641C16.3552 20.4283 16.7542 19.8281 17.2205 19.1291L18.0719 17.8565L18.2736 18.0366C18.5739 18.3067 19.1025 18.5966 19.5045 18.7269C20.8357 19.1438 22.2338 18.8256 23.2332 17.8757C23.7664 17.3739 24.1117 16.7952 24.3044 16.0791C24.4245 15.631 24.4164 14.6454 24.2864 14.1702C23.8787 12.6648 22.8477 11.6746 21.4586 11.4552C20.0557 11.231 19.0116 11.9255 17.5906 14.0181C17.4069 14.2882 16.95 15.0127 16.5699 15.631C14.8623 18.4132 14.0379 19.5027 12.8949 20.4653C12.0928 21.1463 11.4116 21.5094 10.4332 21.7781C10.03 21.8903 9.9447 21.8981 9.06176 21.8981C8.22806 21.8981 8.07105 21.8894 7.69487 21.7952C6.67413 21.5487 6.05899 21.2888 5.28833 20.7747C3.71969 19.7308 2.70226 18.1671 2.30777 16.1913C2.21771 15.7297 2.23182 14.2468 2.33479 13.7495C2.46163 13.1689 2.64784 12.6028 2.89049 12.0603C3.58099 10.5728 4.91186 9.29906 6.45347 8.65978C8.09836 7.96947 9.91768 7.94276 11.6388 8.58354C12.1675 8.77623 13.1267 9.34078 13.5122 9.68114L13.7004 9.85161L12.8265 11.1509C12.3461 11.8631 11.9345 12.4547 11.9078 12.4637C11.8811 12.4727 11.8178 12.4337 11.7643 12.3694C11.5761 12.1677 11.0516 11.7992 10.7559 11.6617C9.68021 11.1599 8.53428 11.1641 7.50213 11.6749C7.0407 11.9036 6.74919 12.123 6.38172 12.5174C6.05148 12.8758 5.86174 13.2164 5.71404 13.7269C5.63328 14.0049 5.61977 14.175 5.61977 14.7351C5.62427 15.3579 5.63328 15.4341 5.75877 15.8105C5.97403 16.4603 6.23912 16.891 6.72697 17.3832C7.47992 18.1405 8.40058 18.484 9.48897 18.4135C10.0807 18.3778 10.4662 18.2299 11.0084 17.8358C11.4968 17.4816 12.0258 16.9396 12.474 16.3258C13.0474 15.5455 13.2312 15.2639 14.1904 13.6912C15.8908 10.8982 16.9037 9.63131 18.0914 8.82365V8.82395Z" fill="white"/>
</svg>
