<svg width="20" height="20" viewBox="0 0 20 20" fill="none" xmlns="http://www.w3.org/2000/svg">
<path fill-rule="evenodd" clip-rule="evenodd" d="M4.02244 17.7718H16.1395C17.2543 17.7718 18.159 16.8671 18.159 15.7523V3.63523C18.159 2.52046 17.2543 1.61572 16.1395 1.61572H4.02244C2.90767 1.61572 2.00293 2.52046 2.00293 3.63523V15.7523C2.00293 16.8671 2.90767 17.7718 4.02244 17.7718ZM14.0997 7.90444C14.0997 10.6389 12.0156 13.7974 8.20678 13.7974C7.0395 13.7974 5.94896 13.4541 5.03614 12.8724C5.1977 12.8926 5.3633 12.9007 5.5289 12.9007C6.49827 12.9007 7.39089 12.5695 8.10176 12.0121C7.19702 11.996 6.42961 11.3982 6.16707 10.5742C6.29228 10.5985 6.42153 10.6106 6.55481 10.6106C6.74465 10.6106 6.9264 10.5864 7.10008 10.5379C6.15495 10.3481 5.44004 9.50793 5.44004 8.50626V8.47798C5.71874 8.63147 6.03782 8.72436 6.3771 8.73648C5.82375 8.36489 5.4562 7.73076 5.4562 7.01182C5.4562 6.63215 5.55718 6.27672 5.73489 5.96975C6.75677 7.22185 8.28352 8.04985 10.0041 8.13467C9.97183 7.98118 9.95163 7.82366 9.95163 7.6621C9.95163 6.51906 10.8806 5.59008 12.0237 5.59008C12.6174 5.59008 13.1546 5.8405 13.5342 6.2444C14.0068 6.15151 14.4511 5.98187 14.851 5.74356C14.6934 6.22825 14.3663 6.63619 13.9382 6.89065C14.3582 6.83814 14.7581 6.72909 15.1297 6.56349C14.851 6.97951 14.4996 7.34706 14.0957 7.63787C14.0997 7.72673 14.0997 7.81558 14.0997 7.90444Z" fill="white"/>
</svg>
