<svg width="74" height="27" viewBox="0 0 74 27" fill="none" xmlns="http://www.w3.org/2000/svg">
<path fill-rule="evenodd" clip-rule="evenodd" d="M0 0V21.989H3.98255V13.7946C3.98255 10.7785 5.60426 9.46957 7.48181 9.46957C9.92857 9.46957 10.469 11.6321 10.469 13.7375V21.989H14.4496V11.9735C14.4496 7.64847 11.8042 5.65703 8.90215 5.65703C6.98499 5.65703 5.17769 6.52515 3.98255 9.09492V0H0ZM24.4948 5.65741C19.6584 5.65741 16.3015 9.1569 16.3015 14.0793C16.3015 19.03 19.6569 22.4731 24.4929 22.4731C29.3289 22.4731 32.6858 19.0304 32.6858 14.0793C32.6858 9.15652 29.3312 5.65741 24.4948 5.65741ZM24.4948 9.46994C26.8852 9.46994 28.5345 11.3478 28.5345 14.0793H28.5326C28.5326 16.7536 26.8825 18.6602 24.4929 18.6602C22.1033 18.6602 20.4248 16.754 20.4248 14.0793C20.4248 11.3758 22.1044 9.46994 24.4948 9.46994ZM34.6531 27V6.11202H38.5789V9.44118C39.9732 6.51061 41.7084 5.65703 43.757 5.65703C48.081 5.65703 50.67 9.41279 50.67 13.9937C50.67 19.3143 47.2275 22.472 43.4724 22.472C41.2251 22.472 39.5183 21.3621 38.6365 19.0577V26.9988L34.6531 27ZM46.5436 14.0789C46.5436 11.3758 44.8652 9.46956 42.5611 9.46956C40.257 9.46956 38.5505 11.3758 38.5505 14.0793C38.5505 16.7827 40.2574 18.6602 42.5619 18.6602C44.8947 18.6598 46.5444 16.7263 46.5444 14.0793L46.5436 14.0789ZM59.1545 6.11202V21.989H63.137V13.7946C63.137 10.7785 64.7568 9.46956 66.6363 9.46956C69.0826 9.46956 69.6231 11.6321 69.6231 13.7375V21.989H73.606V11.9735C73.606 7.64846 70.989 5.65703 68.0585 5.65703C66.1242 5.65703 64.275 6.539 63.0802 9.15652V6.11202H59.1545ZM52.6903 21.989V6.11199H56.6728V21.989H52.6903ZM54.6813 0C53.2817 0 52.1901 1.09258 52.1901 2.43529C52.1901 3.77916 53.2817 4.87212 54.6813 4.87212C56.0526 4.87212 57.1446 3.77916 57.1446 2.43529C57.1446 1.09143 56.0526 0 54.6813 0Z" fill="white"/>
</svg>
